<?xml version="1.0" standalone="no"?>
<!DOCTYPE svg PUBLIC "-//W3C//DTD SVG 1.1//EN" "http://www.w3.org/Graphics/SVG/1.1/DTD/svg11.dtd" >
<svg xmlns="http://www.w3.org/2000/svg" xmlns:xlink="http://www.w3.org/1999/xlink" version="1.1">
<metadata>
Created by FontForge 20160321 at Tue Apr 12 13:17:26 2016
 By root
(c)2012 Optimo.
</metadata>
<defs>
<font id="Stanley-BoldItalic" horiz-adv-x="645" >
  <font-face 
    font-family="Stanley"
    font-weight="700"
    font-style="italic"
    font-stretch="normal"
    units-per-em="1000"
    panose-1="2 5 8 6 8 4 6 9 0 3"
    ascent="800"
    descent="-200"
    x-height="490"
    cap-height="710"
    bbox="-189 -243 1182 963"
    underline-thickness="40"
    underline-position="-100"
    slope="-12"
    stemh="38"
    stemv="136"
    unicode-range="U+000D-FB04"
  />
<missing-glyph horiz-adv-x="365" 
d="M33 0v667h266v-667h-266zM66 33h200v600h-200v-600z" />
    <glyph glyph-name="uniFB01" unicode="fi" horiz-adv-x="581" 
d="M-189 -149c0 23 13 48 28 55h72v-24c0 -23 11 -34 33 -34c30 0 51 31 81 139l123 454l-64 16l9 33h68c43 136 162 233 288 233c100 0 148 -36 148 -69c0 -31 -15 -48 -24 -55h-104v27c0 28 -20 48 -59 48c-45 0 -90 -31 -120 -139l-13 -45h298l-105 -290
c-23 -60 -31 -98 -34 -121c39 23 65 42 102 79l21 -20c-69 -80 -166 -151 -217 -151c-27 0 -31 15 -31 34s6 51 21 94l108 305l-23 27h-151l-108 -379c-45 -157 -138 -276 -247 -276c-64 0 -100 26 -100 59z" />
    <glyph glyph-name="uniFB02" unicode="fl" horiz-adv-x="597" 
d="M-189 -149c0 23 13 48 28 55h72v-24c0 -23 11 -34 33 -34c30 0 51 31 81 139l123 454l-64 16l9 33h68c43 136 162 233 288 233c29 0 55 -3 76 -9l114 6l-148 -520c-17 -63 -27 -100 -24 -120c31 19 53 41 88 82l20 -18c-58 -90 -153 -157 -203 -157c-24 0 -35 11 -35 30
c0 18 5 46 15 83l143 515l-7 12c-15 27 -39 47 -78 47c-45 0 -90 -31 -120 -139l-13 -45h96l-11 -43h-96l-108 -379c-45 -157 -138 -276 -247 -276c-64 0 -100 26 -100 59z" />
    <glyph glyph-name="uniFB03" unicode="ffi" horiz-adv-x="879" 
d="M-189 -149c0 23 13 48 28 55h72v-24c0 -23 11 -34 33 -34c30 0 51 31 81 139l123 454l-64 16l9 33h68c43 137 135 209 262 209c64 0 112 -27 139 -50c53 47 117 74 185 74c100 0 148 -36 148 -69c0 -31 -15 -48 -24 -55h-104v27c0 28 -20 48 -59 48
c-44 0 -88 -31 -120 -139l-13 -45h298l-105 -290c-23 -60 -31 -98 -34 -121c39 23 65 42 102 79l21 -20c-69 -80 -166 -151 -217 -151c-27 0 -31 15 -31 34s6 51 21 94l108 305l-23 27h-151l-96 -337c-53 -181 -170 -276 -303 -276c-49 0 -90 15 -106 38
c-43 -51 -92 -80 -148 -80c-64 0 -100 26 -100 59zM116 -42l6 -13c11 -25 43 -55 87 -55c59 0 99 41 120 122l119 435h-182l-108 -379c-12 -40 -26 -75 -42 -110zM277 490h182c6 21 14 41 23 61l-3 19c-8 35 -28 80 -76 80c-45 0 -90 -31 -120 -139z" />
    <glyph glyph-name="uniFB04" unicode="ffl" horiz-adv-x="895" 
d="M-189 -149c0 23 13 48 28 55h72v-24c0 -23 11 -34 33 -34c30 0 51 31 81 139l123 454l-64 16l9 33h68c43 137 135 209 262 209c64 0 112 -27 139 -50c53 47 117 74 185 74c29 0 55 -3 76 -9l114 6l-148 -520c-17 -63 -27 -100 -24 -120c31 19 53 41 88 82l20 -18
c-58 -90 -153 -157 -203 -157c-24 0 -35 11 -35 30c0 18 5 46 15 83l143 515l-7 12c-15 27 -39 47 -78 47c-44 0 -88 -31 -120 -139l-13 -45h118l-12 -43h-117l-96 -337c-53 -181 -170 -276 -303 -276c-49 0 -90 15 -106 38c-43 -51 -92 -80 -148 -80c-64 0 -100 26 -100 59
zM116 -42l6 -13c11 -25 43 -55 87 -55c59 0 99 41 120 122l119 435h-182l-108 -379c-12 -40 -26 -75 -42 -110zM277 490h182c6 21 14 41 23 61l-3 19c-8 35 -28 80 -76 80c-45 0 -90 -31 -120 -139z" />
    <glyph glyph-name=".notdef" horiz-adv-x="365" 
d="M33 0v667h266v-667h-266zM66 33h200v600h-200v-600z" />
    <glyph glyph-name="glyph3" horiz-adv-x="0" 
 />
    <glyph glyph-name="glyph3" horiz-adv-x="0" 
 />
    <glyph glyph-name="uni000D" unicode="&#xd;" horiz-adv-x="500" 
 />
    <glyph glyph-name="space" unicode=" " horiz-adv-x="250" 
 />
    <glyph glyph-name="exclam" unicode="!" horiz-adv-x="301" 
d="M36 55c0 39 29 68 68 68s68 -29 68 -68s-29 -68 -68 -68s-68 29 -68 68zM131 198l27 293l59 219h135l-59 -219l-130 -293h-32z" />
    <glyph glyph-name="quotedbl" unicode="&#x22;" horiz-adv-x="357" 
d="M140 465l48 245h69l-48 -245h-69zM294 465l48 245h69l-48 -245h-69z" />
    <glyph glyph-name="numbersign" unicode="#" horiz-adv-x="546" 
d="M24 214l12 50h95l48 177h-94l12 49h96l59 220h60l-59 -220h139l59 220h60l-59 -220h94l-12 -49h-96l-48 -177h95l-12 -50h-96l-58 -214h-60l58 214h-139l-58 -214h-60l58 214h-94zM191 264h139l48 177h-139z" />
    <glyph glyph-name="dollar" unicode="$" horiz-adv-x="537" 
d="M-4 -9l53 276h30l15 -49c21 -72 58 -136 107 -167l48 244c-59 67 -117 140 -117 234c0 113 75 182 199 193l8 38h63l-8 -39c47 -4 88 -18 115 -31l21 29h29l-48 -250h-40l-3 25c-11 76 -40 139 -85 167l-48 -242c56 -64 117 -138 117 -244c0 -99 -73 -182 -200 -187
l-7 -38h-63l7 39c-61 7 -97 26 -126 39l-37 -37h-30zM233 595c0 -43 22 -80 51 -117l39 200c-57 -1 -90 -38 -90 -83zM260 32h7c64 0 90 41 90 89c0 39 -25 75 -57 115z" />
    <glyph glyph-name="percent" unicode="%" horiz-adv-x="947" 
d="M73 449c0 123 69 274 217 274c95 0 136 -56 136 -148c0 -122 -71 -275 -218 -275c-95 0 -135 58 -135 149zM111 0l685 710h73l-681 -710h-77zM170 404c0 -41 11 -62 34 -62c66 0 123 173 123 278c0 44 -12 63 -33 63c-68 0 -124 -175 -124 -279zM546 136
c0 123 69 274 217 274c95 0 136 -56 136 -148c0 -122 -71 -275 -218 -275c-95 0 -135 58 -135 149zM643 91c0 -41 11 -62 34 -62c66 0 123 173 123 278c0 44 -12 63 -33 63c-68 0 -124 -175 -124 -279z" />
    <glyph glyph-name="ampersand" unicode="&#x26;" horiz-adv-x="675" 
d="M-9 78c0 150 209 466 380 466c28 0 57 -13 54 -45l27 20c56 43 57 105 57 144v47h124c7 -12 15 -22 15 -41c0 -56 -85 -115 -157 -168l-362 -263c-7 -19 -13 -58 -13 -91c0 -41 11 -61 33 -61c85 0 251 168 299 232h-64l11 29l162 126h40l-37 -112h106l-14 -43h-107
l-99 -318h-115l64 192h-2c-90 -101 -215 -205 -311 -205c-57 0 -91 24 -91 91zM137 284l170 128c5 31 -4 46 -28 46c-53 0 -123 -101 -142 -174z" />
    <glyph glyph-name="quotesingle" unicode="'" horiz-adv-x="203" 
d="M140 465l48 245h69l-48 -245h-69z" />
    <glyph glyph-name="parenleft" unicode="(" horiz-adv-x="338" 
d="M39 139c0 234 142 479 366 602l9 -32c-181 -151 -277 -390 -277 -611c0 -112 28 -214 101 -298l-22 -33c-117 72 -177 221 -177 372z" />
    <glyph glyph-name="parenright" unicode=")" horiz-adv-x="337" 
d="M-55 -201c181 151 277 390 277 611c0 112 -28 214 -101 298l22 33c117 -72 177 -221 177 -372c0 -235 -142 -479 -366 -602z" />
    <glyph glyph-name="asterisk" unicode="*" horiz-adv-x="447" 
d="M98 514l1 78l69 52l81 -80l3 2l-23 117l76 40l60 -40l-68 -118l2 -2l113 80l49 -52l-32 -77l-125 5l-1 -3l93 -67l-46 -72l-80 -7l-10 122h-2l-56 -123l-77 9l-17 72l118 68v3z" />
    <glyph glyph-name="plus" unicode="+" horiz-adv-x="499" 
d="M32 252l10 56h178l37 182h64l-37 -182h178l-10 -56h-178l-36 -190h-64l36 190h-178z" />
    <glyph glyph-name="comma" unicode="," horiz-adv-x="248" 
d="M-36 -120c41 16 103 57 124 107c-51 1 -71 31 -71 68c0 39 29 68 73 68c39 0 64 -24 64 -69c0 -76 -101 -165 -182 -195z" />
    <glyph glyph-name="hyphen" unicode="-" horiz-adv-x="364" 
d="M92 266v50h220v-50h-220z" />
    <glyph glyph-name="period" unicode="." horiz-adv-x="245" 
d="M18 55c0 39 29 68 68 68s68 -29 68 -68s-29 -68 -68 -68s-68 29 -68 68z" />
    <glyph glyph-name="slash" unicode="/" horiz-adv-x="463" 
d="M-25 0l473 710h65l-471 -710h-67z" />
    <glyph glyph-name="zero" unicode="0" horiz-adv-x="603" 
d="M51 253c0 177 116 470 334 470c141 0 191 -117 191 -257c0 -210 -126 -479 -334 -479c-137 0 -191 122 -191 266zM179 182c0 -81 19 -146 83 -146c136 0 180 325 180 472c0 92 -19 166 -79 166c-128 0 -184 -349 -184 -492z" />
    <glyph glyph-name="one" unicode="1" horiz-adv-x="387" 
d="M-14 0l7 38h51l48 42l98 480c-29 -15 -58 -29 -99 -41l9 45c76 29 146 83 205 156h42l-127 -640l32 -42h50l-7 -38h-309z" />
    <glyph glyph-name="two" unicode="2" horiz-adv-x="560" 
d="M-11 53l49 15c215 170 379 330 379 529c0 47 -24 77 -68 77c-64 0 -99 -39 -100 -130l-1 -41h-125c-7 11 -13 28 -13 47c0 96 122 173 261 173c94 0 185 -30 185 -127c0 -168 -232 -367 -446 -514v-2c126 22 199 -36 317 76l40 39h29l-73 -190c-34 -21 -101 -31 -149 -31
c-96 0 -123 59 -203 59c-28 0 -48 -11 -71 -28c-13 8 -15 35 -11 48z" />
    <glyph glyph-name="three" unicode="3" horiz-adv-x="555" 
d="M15 166l36 16c29 -56 63 -90 145 -90c109 0 188 92 188 189c0 80 -48 114 -93 114c-51 0 -88 -20 -115 -33l11 57l254 206v2c-103 -32 -180 37 -287 -83l-20 -22h-28l44 198h30l9 -19c27 15 68 22 103 22c83 0 135 -43 194 -43h14l29 30c20 -3 39 -26 39 -50l-299 -224
l-1 -2c17 5 39 10 62 10c115 0 168 -78 168 -164c0 -163 -143 -293 -274 -293c-135 0 -197 66 -209 179z" />
    <glyph glyph-name="four" unicode="4" horiz-adv-x="524" 
d="M0 196l5 27c164 180 254 331 329 487h166c-114 -165 -250 -304 -424 -462l-1 -2h179l24 124l107 90h38l-42 -214h101l-9 -50h-100l-19 -115l27 -43h50l-7 -38h-317l7 38h54l54 43l23 115h-245z" />
    <glyph glyph-name="five" unicode="5" horiz-adv-x="535" 
d="M8 166l34 13c39 -52 70 -83 147 -83c101 0 181 93 181 194c0 84 -39 129 -111 129c-53 0 -103 -21 -146 -93h-43l136 384l34 13c28 -31 89 -57 157 -57c34 0 97 9 139 38l17 -20c-51 -53 -148 -116 -271 -116h-62l-67 -144h2c43 32 95 52 147 52c129 0 180 -83 180 -179
c0 -149 -121 -310 -292 -310c-108 0 -170 66 -182 179z" />
    <glyph glyph-name="six" unicode="6" horiz-adv-x="540" 
d="M31 190c0 232 251 465 474 533l-5 -38c-128 -53 -221 -162 -277 -261h2c27 11 43 19 95 19c115 0 175 -62 175 -170c0 -143 -116 -286 -273 -286c-128 0 -191 91 -191 203zM164 176c0 -73 23 -136 75 -136c85 0 116 125 116 217c0 69 -20 133 -75 133
c-84 0 -116 -124 -116 -214z" />
    <glyph glyph-name="seven" unicode="7" horiz-adv-x="499" 
d="M63 0c59 232 249 481 420 633v2c-139 -52 -250 28 -357 -91l-20 -22h-28l41 198h30l11 -18c27 12 66 21 101 21c98 0 152 -43 234 -43h14l27 24c17 -10 26 -25 26 -44c-211 -208 -289 -418 -329 -660h-170z" />
    <glyph glyph-name="eight" unicode="8" horiz-adv-x="539" 
d="M17 122c0 109 102 189 197 237c-61 56 -93 108 -93 171c0 117 117 193 233 193c126 0 169 -61 169 -119c0 -79 -47 -148 -164 -205c82 -77 113 -128 113 -201c0 -112 -141 -211 -274 -211c-101 0 -181 49 -181 135zM154 143c0 -48 19 -100 79 -100c66 0 117 48 117 112
c0 70 -60 127 -116 183c-53 -45 -80 -119 -80 -195zM234 575c0 -56 39 -98 95 -149c67 53 82 110 82 157c0 44 -14 87 -75 87c-68 0 -102 -39 -102 -95z" />
    <glyph glyph-name="nine" unicode="9" horiz-adv-x="539" 
d="M58 -13l5 38c128 53 221 162 277 261h-2c-27 -11 -44 -19 -95 -19c-115 0 -175 62 -175 170c0 143 116 286 273 286c128 0 191 -91 191 -203c0 -232 -251 -465 -474 -533zM208 453c0 -69 20 -133 75 -133c84 0 116 124 116 214c0 73 -23 136 -75 136
c-85 0 -116 -125 -116 -217z" />
    <glyph glyph-name="colon" unicode=":" horiz-adv-x="272" 
d="M24 55c0 39 29 68 68 68s68 -29 68 -68s-29 -68 -68 -68s-68 29 -68 68zM129 435c0 39 29 68 68 68s68 -29 68 -68s-29 -68 -68 -68s-68 29 -68 68z" />
    <glyph glyph-name="semicolon" unicode=";" horiz-adv-x="279" 
d="M-25 -120c41 16 103 57 124 107c-51 1 -71 31 -71 68c0 39 29 68 73 68c39 0 64 -24 64 -69c0 -76 -101 -165 -182 -195zM133 435c0 39 29 68 68 68s68 -29 68 -68s-29 -68 -68 -68s-68 29 -68 68z" />
    <glyph glyph-name="less" unicode="&#x3c;" horiz-adv-x="508" 
d="M25 251l10 49l464 231l-13 -72l-379 -182l306 -186l-13 -70z" />
    <glyph glyph-name="equal" unicode="=" horiz-adv-x="629" 
d="M38 142l12 56h492l-12 -56h-492zM81 361l12 56h492l-12 -56h-492z" />
    <glyph glyph-name="greater" unicode="&#x3e;" horiz-adv-x="506" 
d="M2 21l13 72l379 182l-306 186l13 70l375 -230l-10 -49z" />
    <glyph glyph-name="question" unicode="?" horiz-adv-x="478" 
d="M10 55c0 39 29 68 68 68s68 -29 68 -68s-29 -68 -68 -68s-68 29 -68 68zM107 551c0 99 152 172 269 172c79 0 138 -22 138 -90c0 -111 -171 -253 -299 -383l-56 -58l-29 24c161 188 251 292 251 412c0 37 -11 49 -36 49c-44 0 -101 -69 -101 -150v-23h-125
c-7 11 -12 28 -12 47z" />
    <glyph glyph-name="at" unicode="@" horiz-adv-x="807" 
d="M33 167c0 217 227 447 461 447c180 0 275 -123 275 -230c0 -192 -192 -397 -333 -397c-25 0 -42 9 -42 25c0 24 15 72 36 119l56 127h-4c-69 -133 -167 -271 -257 -271c-40 0 -62 25 -62 81c0 172 216 435 343 435c31 0 49 -16 62 -29l38 26h30l-103 -325
c-16 -47 -23 -113 -23 -128c114 45 213 195 213 333c0 99 -70 194 -234 194c-205 0 -412 -189 -412 -404c0 -65 21 -123 56 -170h-49c-31 47 -51 103 -51 167zM286 122c0 -17 5 -32 20 -32c33 0 131 143 187 303c-7 11 -26 21 -46 21c-96 0 -161 -192 -161 -292z" />
    <glyph glyph-name="A" unicode="A" 
d="M-32 0l4 18l455 650v82h126v-671l32 -51l-6 -28h-249l9 38h49l39 41v192h-207l-118 -171l33 -62h62l-9 -38h-220zM254 321h173v250z" />
    <glyph glyph-name="B" unicode="B" horiz-adv-x="656" 
d="M5 0l8 38h50l47 42l109 550l-31 42h-51l8 38h288c121 0 233 -15 233 -127c0 -120 -116 -180 -200 -196l1 -2c67 -5 159 -36 159 -140c0 -157 -174 -245 -334 -245h-287zM235 69c27 -11 48 -18 99 -18c69 0 151 62 151 181c0 72 -42 116 -138 116h-55zM300 398h55
c88 0 172 59 172 175c0 64 -56 87 -100 87c-40 0 -62 -9 -77 -16z" />
    <glyph glyph-name="C" unicode="C" horiz-adv-x="676" 
d="M70 256c0 271 230 467 430 467c83 0 128 -21 157 -41l32 37h30l-50 -256h-40l-8 34c-27 117 -69 173 -153 173c-118 0 -267 -160 -267 -371c0 -124 44 -208 160 -208c88 0 183 47 270 127l26 -20c-50 -79 -187 -211 -337 -211c-196 0 -250 144 -250 269z" />
    <glyph glyph-name="D" unicode="D" horiz-adv-x="749" 
d="M5 0l8 38h50l48 42l108 550l-31 42h-51l8 38h283c243 0 328 -125 328 -248c0 -249 -197 -462 -460 -462h-291zM238 83c9 -5 19 -8 30 -11c19 -7 43 -11 70 -11c235 0 279 302 279 394c0 96 -45 205 -178 205c-23 0 -46 -4 -62 -8c-10 -3 -19 -5 -27 -8z" />
    <glyph glyph-name="E" unicode="E" horiz-adv-x="659" 
d="M5 0l8 38h40l57 42l109 550l-31 42h-51l8 38h548l-42 -210h-18l-79 160h-201l-52 -263h81l129 150h18l-71 -350h-18l-66 150h-81l-61 -297h199l191 170h18l-87 -220h-548z" />
    <glyph glyph-name="F" unicode="F" horiz-adv-x="609" 
d="M5 0l8 38h50l47 42l109 550l-31 42h-51l8 38h548l-42 -210h-18l-79 160h-201l-52 -263h81l129 150h18l-71 -350h-18l-66 150h-81l-55 -267l30 -42h82l-7 -38h-338z" />
    <glyph glyph-name="G" unicode="G" horiz-adv-x="720" 
d="M70 256c0 271 230 467 430 467c83 0 128 -21 157 -41l32 37h30l-50 -256h-40l-8 34c-27 117 -69 173 -153 173c-118 0 -267 -160 -267 -371c0 -124 44 -208 160 -208c55 0 112 18 168 51l30 120l-34 34h-64l9 36h246l-91 -341h-40l-53 76c-60 -45 -135 -80 -212 -80
c-196 0 -250 144 -250 269z" />
    <glyph glyph-name="H" unicode="H" horiz-adv-x="783" 
d="M5 0l8 38h50l47 42l109 550l-31 42h-51l8 38h326l-8 -38h-70l-46 -42l-45 -227h275l45 227l-31 42h-69l8 38h326l-8 -38h-52l-46 -42l-109 -550l30 -42h52l-7 -38h-326l7 38h69l47 42l54 273h-275l-54 -273l30 -42h70l-7 -38h-326z" />
    <glyph glyph-name="I" unicode="I" horiz-adv-x="378" 
d="M9 0l8 38h45l47 42l109 550l-31 42h-46l8 38h298l-8 -38h-47l-46 -42l-109 -550l30 -42h47l-7 -38h-298z" />
    <glyph glyph-name="J" unicode="J" horiz-adv-x="430" 
d="M-11 46c0 23 13 48 28 55h82v-18c0 -23 10 -39 31 -40c25 0 43 19 57 89l99 498l-33 42h-90l8 38h334l-8 -38h-36l-47 -42l-89 -439c-27 -139 -111 -204 -226 -204c-64 0 -110 26 -110 59z" />
    <glyph glyph-name="K" unicode="K" horiz-adv-x="688" 
d="M4 0l8 38h49l50 43l107 547l-32 44h-50l8 38h315l-8 -38h-57l-48 -44l-52 -250h2l248 212l17 82h-41l4 38h224l-2 -28l-344 -279l283 -375l-4 -28h-279l7 38h54l8 49l-183 251h-2l-47 -257l30 -43h56l-7 -38h-314z" />
    <glyph glyph-name="L" unicode="L" horiz-adv-x="605" 
d="M5 0l8 38h40l57 42l109 550l-31 42h-51l8 38h336l-8 -38h-80l-46 -42l-115 -580h169l191 170h18l-87 -220h-518z" />
    <glyph glyph-name="M" unicode="M" horiz-adv-x="914" 
d="M12 0l8 38h39l52 62l107 540l-16 32h-58l8 38h196l128 -535h2l281 535h225l-8 -38h-65l-24 -22l-113 -570l32 -42h45l-7 -38h-296l7 38h42l49 42l91 473h-2l-301 -563h-44l-132 562h-2l-86 -452l35 -62h79l-7 -38h-265z" />
    <glyph glyph-name="N" unicode="N" horiz-adv-x="745" 
d="M7 0l8 38h48l53 63l95 481l-60 109l3 19h140l277 -504h2l83 404l-35 62h-58l8 38h254l-8 -38h-47l-55 -62l-123 -620h-49l-287 519h-2l-79 -408l35 -63h58l-7 -38h-254z" />
    <glyph glyph-name="O" unicode="O" horiz-adv-x="747" 
d="M65 232c0 247 214 491 452 491c190 0 242 -147 242 -239c0 -267 -230 -497 -459 -497c-190 0 -235 141 -235 245zM200 289c0 -153 69 -230 164 -230c143 0 256 176 256 374c0 139 -64 220 -165 220c-145 0 -255 -183 -255 -364z" />
    <glyph glyph-name="P" unicode="P" horiz-adv-x="619" 
d="M5 0l8 38h48l49 42l109 550l-33 42h-49l8 38h318c139 0 211 -37 211 -133c0 -167 -167 -268 -319 -268h-26l9 45h18c101 0 174 85 174 200c0 75 -47 106 -103 106c-35 0 -57 -8 -78 -17l-111 -563l31 -42h90l-7 -38h-347z" />
    <glyph glyph-name="Q" unicode="Q" horiz-adv-x="747" 
d="M65 232c0 247 214 491 452 491c190 0 242 -147 242 -239c0 -244 -193 -460 -403 -492c71 -63 210 -155 341 -168l-5 -19h-303l-107 183c-175 8 -217 144 -217 244zM200 289c0 -153 69 -230 164 -230c143 0 256 176 256 374c0 139 -64 220 -165 220
c-145 0 -255 -183 -255 -364z" />
    <glyph glyph-name="R" unicode="R" horiz-adv-x="671" 
d="M5 0l8 38h49l49 43l108 549l-32 42h-50l8 38h323c151 0 213 -69 213 -137c0 -123 -112 -196 -253 -223l1 -2l48 -19l117 -269l60 -42l-2 -18h-181l-116 273c-13 32 -29 49 -60 49h-8l-48 -241l31 -43h74l-7 -38h-332zM296 372h52c76 0 187 57 187 188
c0 48 -34 100 -108 100c-24 0 -43 -4 -56 -8l-21 -8z" />
    <glyph glyph-name="S" unicode="S" horiz-adv-x="536" 
d="M21 -9l53 276h30l15 -49c30 -100 89 -186 173 -186c64 0 90 41 90 89c0 117 -225 224 -225 408c0 123 89 194 232 194c56 0 113 -17 145 -33l21 29h29l-48 -250h-40l-3 25c-13 106 -65 184 -144 184c-57 0 -91 -36 -91 -83c0 -135 219 -216 219 -420
c0 -103 -78 -188 -217 -188c-90 0 -137 25 -172 41l-37 -37h-30z" />
    <glyph glyph-name="T" unicode="T" horiz-adv-x="652" 
d="M89 490l46 233h30l33 -13h469l38 13h30l-46 -233h-28l-78 170h-96l-114 -579l31 -43h72l-7 -38h-352l7 38h71l50 43l114 579h-96l-146 -170h-28z" />
    <glyph glyph-name="U" unicode="U" horiz-adv-x="737" 
d="M128 258l74 372l-33 42h-40l8 38h313l-8 -38h-59l-48 -42l-71 -359c-32 -158 -4 -217 110 -217c113 0 187 79 214 218l68 338l-35 62h-60l8 38h267l-8 -38h-59l-53 -62l-65 -327c-32 -164 -116 -296 -297 -296c-95 -1 -161 23 -198 70c-25 31 -37 72 -36 123
c0 24 3 50 8 78z" />
    <glyph glyph-name="V" unicode="V" horiz-adv-x="643" 
d="M143 682l4 28h249l-7 -38h-49l-41 -42v-449l337 437l-23 54h-82l7 38h225l-4 -18l-546 -705h-40v643z" />
    <glyph glyph-name="W" unicode="W" horiz-adv-x="961" 
d="M141 682l4 28h249l-7 -38h-49l-41 -42v-449l217 309v220h217l-4 -18l-87 -119v-392l307 437l-23 54h-82l7 38h225l-4 -18l-516 -705h-40v414l-303 -414h-40v643z" />
    <glyph glyph-name="X" unicode="X" horiz-adv-x="621" 
d="M-23 0l3 18l308 336l-117 276l-51 62l4 18h267l-8 -38h-60l-9 -50l78 -182l153 178l-37 54h-52l8 38h233l-4 -18l-279 -303l133 -309l53 -62l-2 -18h-269l7 38h56l10 49l-91 213l-180 -211l14 -51h75l-7 -38h-236z" />
    <glyph glyph-name="Y" unicode="Y" horiz-adv-x="593" 
d="M100 692l4 18h293l-8 -38h-63l-34 -42l102 -230h2l178 230l-25 42h-64l8 38h205l-4 -18l-282 -353l-51 -259l39 -42h54l-7 -38h-336l7 38h53l57 42l52 256l-136 294z" />
    <glyph glyph-name="Z" unicode="Z" horiz-adv-x="546" 
d="M3 0v28l448 630v2h-154l-129 -170h-28l35 233h30l33 -13h371l1 -28l-442 -630v-2h171l127 170h28l-33 -220h-458z" />
    <glyph glyph-name="bracketleft" unicode="[" horiz-adv-x="323" 
d="M60 -38l153 786h195l-7 -38h-139l-138 -710h139l-8 -38h-195z" />
    <glyph glyph-name="backslash" unicode="\" horiz-adv-x="442" 
d="M101 710h58l204 -710h-58z" />
    <glyph glyph-name="bracketright" unicode="]" horiz-adv-x="322" 
d="M-9 -38l7 38h139l138 710h-139l8 38h195l-153 -786h-195z" />
    <glyph glyph-name="asciicircum" unicode="^" horiz-adv-x="489" 
d="M57 303l169 420h60l170 -420h-69l-132 336l-128 -336h-70z" />
    <glyph glyph-name="underscore" unicode="_" horiz-adv-x="635" 
d="M-17 -85h492v-56h-492v56z" />
    <glyph glyph-name="grave" unicode="`" horiz-adv-x="220" 
d="M7 640l51 70c49 -54 100 -98 154 -132l-11 -15z" />
    <glyph glyph-name="a" unicode="a" horiz-adv-x="483" 
d="M1 68c0 172 216 435 343 435c31 0 49 -16 62 -29l38 26h30l-103 -325c-16 -49 -19 -71 -20 -88c27 19 51 40 82 72l23 -21c-66 -87 -160 -151 -199 -151c-13 0 -25 9 -25 25c0 24 15 72 36 119l56 127h-4c-69 -133 -167 -271 -257 -271c-40 0 -62 25 -62 81zM124 122
c0 -17 5 -32 20 -32c33 0 131 143 187 303c-7 11 -26 21 -46 21c-96 0 -161 -192 -161 -292z" />
    <glyph glyph-name="b" unicode="b" horiz-adv-x="459" 
d="M25 51l163 589l-27 32h-52l12 38l204 10l-148 -453h2c64 107 144 236 234 236c40 0 62 -25 62 -81c0 -172 -206 -435 -333 -435c-60 0 -104 43 -117 64zM155 97c7 -11 26 -21 46 -21c96 0 151 192 151 292c0 17 -5 32 -20 32c-33 0 -134 -143 -177 -303z" />
    <glyph glyph-name="c" unicode="c" horiz-adv-x="404" 
d="M3 70c0 151 169 433 348 433c59 0 76 -33 76 -69c0 -35 -17 -69 -40 -93h-83v34c0 33 -9 53 -32 53c-76 0 -138 -201 -138 -291c0 -39 7 -56 30 -56c45 0 104 42 160 114l33 -23c-67 -105 -175 -185 -278 -185c-49 0 -76 32 -76 83z" />
    <glyph glyph-name="d" unicode="d" horiz-adv-x="484" 
d="M2 68c0 172 206 435 333 435c7 0 11 -1 16 -2l39 139l-27 32h-52l12 38l204 10l-148 -520c-9 -31 -15 -57 -20 -76c-3 -15 -5 -27 -5 -36c0 -3 0 -6 1 -8c31 19 53 41 88 82l20 -18c-58 -90 -153 -157 -203 -157c-24 0 -27 11 -27 30s15 68 31 105l61 136h-4
c-72 -131 -165 -271 -257 -271c-40 0 -62 25 -62 81zM124 122c0 -17 5 -32 20 -32c33 0 137 151 180 312c-7 11 -26 21 -46 21c-96 0 -154 -202 -154 -301z" />
    <glyph glyph-name="e" unicode="e" horiz-adv-x="400" 
d="M3 70c0 151 169 433 348 433c59 0 76 -28 76 -57c0 -101 -159 -211 -282 -219c-7 -33 -11 -63 -11 -89c0 -44 8 -56 35 -56c40 0 100 41 155 113l33 -23c-67 -105 -175 -185 -278 -185c-49 0 -76 32 -76 83zM154 261c47 0 155 63 155 132c0 23 -9 38 -32 38
c-54 0 -99 -85 -123 -170z" />
    <glyph glyph-name="f" unicode="f" horiz-adv-x="299" 
d="M-189 -149c0 23 13 48 28 55h72v-24c0 -23 11 -34 32 -34h1c30 0 51 31 81 139l123 454l-64 16l9 33h68c43 136 137 233 238 233c64 0 100 -26 100 -59c0 -31 -15 -48 -24 -55h-76v24c0 21 -6 34 -29 34c-22 0 -51 -25 -80 -132l-13 -45h97l-12 -43h-96l-108 -379
c-45 -157 -138 -276 -247 -276c-64 0 -100 26 -100 59z" />
    <glyph glyph-name="g" unicode="g" horiz-adv-x="441" 
d="M-66 -145c0 48 29 86 98 135c-27 0 -46 27 -46 59s37 65 62 87l51 40c-19 19 -25 45 -25 73c0 140 145 254 260 254c23 0 42 -4 57 -13h113v-27l-79 -27c2 -8 3 -17 3 -26c0 -79 -119 -256 -260 -256c-14 0 -27 2 -38 5c-17 -15 -27 -32 -27 -40c0 -11 4 -23 39 -23h125
c64 0 80 -44 80 -81c0 -101 -175 -223 -296 -223c-80 0 -117 24 -117 63zM27 -99c0 -25 23 -39 62 -39c77 0 169 42 169 103c0 16 -10 25 -42 25h-133c-37 -29 -56 -58 -56 -89zM174 264c0 -37 11 -55 33 -55c72 0 113 136 113 190c0 37 -11 55 -33 55
c-72 0 -113 -136 -113 -190z" />
    <glyph glyph-name="h" unicode="h" horiz-adv-x="560" 
d="M12 0l177 640l-27 32h-52l12 38l204 10l-148 -453h2c32 57 176 236 293 236c44 0 81 -21 81 -66c0 -27 -11 -53 -30 -88l-97 -186c-17 -32 -29 -58 -34 -85c39 16 75 50 107 81l23 -23c-73 -86 -178 -149 -221 -149c-31 0 -43 10 -43 29c0 23 22 69 45 116l81 164
c8 19 31 66 31 91c0 19 -9 24 -24 24c-34 0 -124 -77 -185 -172c-34 -53 -52 -107 -95 -239h-100z" />
    <glyph glyph-name="i" unicode="i" horiz-adv-x="302" 
d="M32 21c0 19 6 51 21 94l108 305l-27 32h-57l12 38l209 10l-107 -300c-21 -59 -32 -100 -34 -121c39 23 65 42 102 79l21 -20c-69 -80 -166 -151 -217 -151c-27 0 -31 15 -31 34zM206 641c0 39 29 68 68 68s68 -29 68 -68s-29 -68 -68 -68s-68 29 -68 68z" />
    <glyph glyph-name="j" unicode="j" horiz-adv-x="279" 
d="M-179 -149c0 23 15 48 28 55h72v-24c0 -23 16 -34 35 -34c33 0 49 31 79 139l116 430l-28 36h-59l9 37l218 10l-123 -432c-51 -180 -128 -276 -247 -276c-64 0 -100 26 -100 59zM193 641c0 39 29 68 68 68s68 -29 68 -68s-29 -68 -68 -68s-68 29 -68 68z" />
    <glyph glyph-name="k" unicode="k" horiz-adv-x="522" 
d="M12 0l177 640l-27 32h-52l12 38l204 10l-125 -438h2c35 56 146 221 255 221c43 0 65 -22 65 -66c0 -91 -122 -196 -214 -231c9 -44 28 -95 63 -138c28 17 54 41 83 73l24 -20c-32 -48 -124 -131 -173 -131c-29 0 -79 111 -106 218l-5 5c-27 -45 -51 -102 -78 -213h-105z
M212 241c9 -5 22 -6 38 -6c69 0 153 100 153 156c0 19 -9 24 -24 24c-35 0 -108 -81 -167 -174z" />
    <glyph glyph-name="l" unicode="l" horiz-adv-x="283" 
d="M23 17c0 18 5 46 15 83l150 540l-27 32h-52l12 38l204 10l-148 -520c-9 -31 -15 -57 -20 -76c-3 -15 -5 -27 -5 -36c0 -3 0 -6 1 -8c31 19 53 41 88 82l20 -18c-58 -90 -153 -157 -203 -157c-24 0 -35 11 -35 30z" />
    <glyph glyph-name="m" unicode="m" horiz-adv-x="845" 
d="M12 0l147 420l-27 32h-52l11 38l209 10l-93 -218h2c34 56 152 221 270 221c44 0 71 -25 71 -56c0 -39 -17 -66 -32 -101l-28 -65h4c35 56 146 222 264 222c44 0 81 -21 81 -66c0 -27 -11 -53 -30 -88l-97 -186c-17 -32 -29 -58 -34 -85c39 16 75 50 107 81l23 -23
c-73 -86 -178 -149 -221 -149c-31 0 -43 10 -43 29c0 23 22 69 45 116l85 169c8 19 31 66 31 91c0 19 -9 24 -24 24c-34 0 -118 -82 -179 -177c-34 -53 -57 -107 -100 -239h-106l117 326c9 24 13 50 13 66c0 19 -9 24 -24 24c-34 0 -118 -82 -179 -177
c-34 -53 -57 -107 -100 -239h-111z" />
    <glyph glyph-name="n" unicode="n" horiz-adv-x="576" 
d="M12 0l147 420l-27 32h-52l11 38l209 10l-93 -218h2c34 56 162 221 280 221c44 0 81 -21 81 -66c0 -27 -11 -53 -30 -88l-97 -186c-17 -32 -29 -58 -34 -85c39 16 75 50 107 81l23 -23c-73 -86 -178 -149 -221 -149c-31 0 -43 10 -43 29c0 23 22 69 45 116l81 164
c11 22 31 67 31 91c0 19 -9 24 -24 24c-34 0 -124 -77 -185 -172c-34 -53 -57 -107 -100 -239h-111z" />
    <glyph glyph-name="o" unicode="o" horiz-adv-x="413" 
d="M3 70c0 151 169 433 348 433c49 0 76 -32 76 -83c0 -151 -169 -433 -348 -433c-49 0 -76 32 -76 83zM133 130c0 -33 9 -54 32 -54c73 0 139 187 139 298c0 33 -9 54 -32 54c-73 0 -139 -187 -139 -298z" />
    <glyph glyph-name="p" unicode="p" horiz-adv-x="477" 
d="M-98 -195l12 38h52l29 32l154 545l-27 32h-52l11 38l190 10l-76 -233h2c69 109 143 236 234 236c40 0 62 -25 62 -81c0 -172 -206 -435 -333 -435c-8 0 -21 0 -28 3l-29 -115l28 -32h60l-12 -38h-277zM173 97c7 -11 26 -21 46 -21c96 0 151 192 151 292
c0 17 -5 32 -20 32c-33 0 -134 -143 -177 -303z" />
    <glyph glyph-name="q" unicode="q" horiz-adv-x="459" 
d="M2 68c0 172 206 435 333 435c31 0 49 -16 62 -29l38 26h38l-184 -625l28 -32h54l-12 -38h-275l12 38h56l29 32l106 333h-2c-72 -130 -131 -221 -221 -221c-40 0 -62 25 -62 81zM125 122c0 -17 5 -32 20 -32c33 0 134 143 177 303c-7 11 -26 21 -46 21
c-96 0 -151 -192 -151 -292z" />
    <glyph glyph-name="r" unicode="r" horiz-adv-x="380" 
d="M9 0l146 420l-27 32h-47l12 38l186 10l-97 -231h5c59 108 137 232 215 232c33 0 45 -15 50 -22l-57 -116h-33c-99 0 -171 -137 -237 -363h-116z" />
    <glyph glyph-name="s" unicode="s" horiz-adv-x="370" 
d="M-21 40l49 117l34 1l1 -17c11 -79 48 -105 87 -105c31 0 48 24 48 56c0 88 -100 141 -100 250c0 79 61 161 173 161c44 0 86 -11 125 -38l-54 -133h-38v11c0 64 -14 118 -57 118c-35 0 -49 -28 -49 -61c0 -74 100 -141 100 -256c0 -75 -55 -157 -171 -157
c-59 0 -111 18 -148 53z" />
    <glyph glyph-name="t" unicode="t" horiz-adv-x="304" 
d="M27 17c0 19 3 47 15 83l115 343l-74 14l13 33l179 132h33l-39 -132h101l-13 -43h-98l-78 -247c-11 -31 -18 -56 -21 -75l-4 -34c0 -4 0 -8 1 -11c31 19 53 41 88 82l20 -18c-58 -90 -153 -157 -203 -157c-24 0 -35 11 -35 30z" />
    <glyph glyph-name="u" unicode="u" horiz-adv-x="561" 
d="M29 50c0 35 13 69 33 118l106 252l-27 32h-57l12 38l209 10l-124 -300c-24 -60 -34 -85 -34 -100c0 -11 6 -20 19 -20c44 0 103 62 171 157c41 57 79 149 106 253l115 10l-107 -300c-21 -59 -32 -100 -34 -121c39 23 65 42 102 79l21 -20c-69 -80 -166 -151 -217 -151
c-27 0 -31 15 -31 34c0 32 35 111 62 173h-2c-69 -101 -154 -207 -254 -207c-54 0 -69 30 -69 63z" />
    <glyph glyph-name="v" unicode="v" horiz-adv-x="433" 
d="M72 452l9 38l181 8l-49 -363h2c123 139 155 200 155 246c0 23 -16 33 -32 33h-9l11 70c17 9 36 19 71 19c28 0 56 -17 56 -64c0 -102 -136 -243 -337 -449h-45l49 430l-29 32h-33z" />
    <glyph glyph-name="w" unicode="w" 
d="M72 452l9 38l177 8l-48 -367h2c52 59 96 108 120 144l24 214c15 7 28 14 57 14c28 0 62 -16 62 -59c0 -17 -5 -36 -16 -57l-35 -256h2c123 139 156 204 156 250c0 23 -16 33 -32 33h-9l11 70c17 9 36 19 71 19c28 0 56 -17 56 -64c0 -102 -136 -243 -337 -449h-45l25 197
c-52 -59 -118 -124 -190 -197h-45l49 430l-29 32h-35z" />
    <glyph glyph-name="x" unicode="x" horiz-adv-x="506" 
d="M-37 46c0 27 18 61 43 80h49v-7c0 -21 4 -32 27 -32c19 0 51 42 124 141l-29 192l-27 32h-56l11 38l174 10l27 -184c67 97 119 187 174 187c51 0 73 -24 73 -59c0 -27 -18 -61 -43 -80h-49v7c0 21 -4 32 -27 32c-19 0 -51 -42 -120 -137l30 -202c25 21 52 46 76 77
l26 -25c-53 -69 -97 -129 -147 -129c-43 0 -61 29 -69 81l-17 111c-67 -99 -125 -192 -177 -192c-51 0 -73 24 -73 59z" />
    <glyph glyph-name="y" unicode="y" horiz-adv-x="449" 
d="M-188 -149c0 27 14 50 33 70h75v-5c0 -27 20 -39 37 -39c36 0 69 8 100 68c41 81 57 243 81 475l-29 32h-36l9 38l183 8c-40 -279 -56 -361 -80 -431h2c171 192 196 259 196 314c0 23 -14 33 -35 33h-16l11 76c15 7 43 13 71 13s62 -19 62 -64c0 -91 -105 -240 -305 -449
c-135 -143 -204 -198 -284 -198c-43 0 -75 30 -75 59z" />
    <glyph glyph-name="z" unicode="z" horiz-adv-x="446" 
d="M-50 0l389 383v2h-182l-48 -48h-30l54 153h347v-42l-360 -349c98 -45 64 -191 118 -191c29 0 37 24 37 56v36h89c11 -11 16 -20 16 -40c0 -35 -65 -98 -144 -98c-115 0 -151 138 -220 138l-50 -20z" />
    <glyph glyph-name="braceleft" unicode="{" horiz-adv-x="346" 
d="M33 216l17 85c56 3 85 32 101 112l32 167c27 136 109 177 170 177c31 0 59 -5 78 -14l-17 -33c-19 5 -36 9 -52 9c-74 0 -102 -94 -113 -155l-32 -167c-21 -100 -94 -130 -118 -135l-1 -5c21 -5 83 -38 65 -138l-33 -168c-14 -62 -21 -156 53 -156c17 0 34 3 55 10l4 -34
c-23 -9 -53 -14 -84 -14c-60 0 -127 44 -100 177l33 169c15 80 -2 110 -58 113z" />
    <glyph glyph-name="bar" unicode="|" horiz-adv-x="259" 
d="M67 0l138 710h63l-138 -710h-63z" />
    <glyph glyph-name="braceright" unicode="}" horiz-adv-x="345" 
d="M-62 -229l17 33c19 -5 36 -9 52 -9c76 0 100 94 113 155l32 167c19 101 94 130 118 135l1 5c-22 6 -84 37 -65 138l33 168c11 62 22 156 -53 156c-17 0 -34 -3 -55 -10l-4 34c23 9 53 14 84 14c60 0 127 -44 100 -177l-33 -169c-15 -80 2 -110 58 -113l-17 -85
c-56 -3 -85 -32 -101 -112l-32 -167c-27 -136 -109 -177 -170 -177c-31 0 -59 5 -78 14z" />
    <glyph glyph-name="asciitilde" unicode="~" horiz-adv-x="634" 
d="M66 289c51 27 105 45 152 45c69 0 126 -41 198 -41c44 0 79 9 130 36l19 -48c-53 -31 -105 -46 -157 -46c-69 0 -126 42 -195 42c-41 0 -80 -11 -129 -35z" />
    <glyph glyph-name="uni00A0" unicode="&#xa0;" horiz-adv-x="250" 
 />
    <glyph glyph-name="exclamdown" unicode="&#xa1;" horiz-adv-x="302" 
d="M22 -13l59 219l130 293h32l-27 -293l-59 -219h-135zM202 642c0 39 29 68 68 68s68 -29 68 -68s-29 -68 -68 -68s-68 29 -68 68z" />
    <glyph glyph-name="cent" unicode="&#xa2;" horiz-adv-x="514" 
d="M16 141c0 162 142 327 297 356l14 43h57l-12 -37c48 -3 81 -16 94 -23l24 19h25l-64 -186h-40l-4 26c-7 57 -14 96 -53 107l-114 -365c53 3 107 34 162 99l31 -14c-64 -96 -136 -159 -221 -175l-13 -41h-57l12 38c-95 7 -138 69 -138 153zM138 196c0 -51 13 -89 48 -106
l111 354c-75 -24 -159 -128 -159 -248z" />
    <glyph glyph-name="sterling" unicode="&#xa3;" horiz-adv-x="617" 
d="M-9 0l9 47c56 27 104 80 144 289h-85l11 56h85l23 118c24 127 136 213 265 213c100 0 184 -43 165 -151c-3 -8 -8 -26 -15 -35h-131l4 20c16 83 -20 106 -60 106c-52 0 -77 -53 -93 -136l-26 -135h184l-11 -56h-183c-32 -167 -37 -149 -117 -221l5 -6c43 41 75 54 107 54
c67 0 118 -69 163 -69c32 0 58 15 91 38l20 -22c-48 -69 -125 -123 -170 -123c-61 0 -91 52 -153 52c-55 0 -100 -15 -136 -39h-96z" />
    <glyph glyph-name="currency" unicode="&#xa4;" horiz-adv-x="575" 
d="M85 510l37 34l62 -62c33 27 67 37 114 37s79 -10 114 -37l63 63l34 -37l-62 -62c27 -33 37 -67 37 -114s-10 -79 -37 -114l63 -63l-37 -34l-62 62c-33 -27 -67 -37 -114 -37s-79 10 -114 37l-63 -63l-34 37l62 62c-27 33 -37 67 -37 114s10 79 37 114zM183 332
c0 -64 50 -118 114 -118s114 54 114 118s-50 117 -114 117s-114 -53 -114 -117z" />
    <glyph glyph-name="yen" unicode="&#xa5;" horiz-adv-x="670" 
d="M105 692l4 18h293l-8 -38h-63l-34 -42l102 -230h2l178 230l-25 42h-64l8 38h205l-4 -18l-240 -300h147l-12 -56h-178l-16 -83h184l-12 -56h-183l-23 -117l39 -42h54l-7 -38h-336l7 38h53l57 42l24 117h-147l12 56h146l17 83h-153l12 56h115l-110 238z" />
    <glyph glyph-name="brokenbar" unicode="&#xa6;" horiz-adv-x="266" 
d="M71 0l55 290h63l-55 -290h-63zM153 420l56 290h63l-56 -290h-63z" />
    <glyph glyph-name="section" unicode="&#xa7;" horiz-adv-x="601" 
d="M-50 -204l53 276h30l15 -49c30 -100 89 -186 173 -186c64 0 90 41 90 89c0 117 -225 184 -225 368c0 88 47 150 128 178c-5 19 -8 36 -8 57c0 123 89 194 232 194c56 0 113 -17 145 -33l21 29h29l-48 -250h-40l-3 25c-13 106 -65 184 -144 184c-57 0 -91 -36 -91 -83
c0 -136 219 -175 219 -380c0 -79 -44 -146 -127 -174c4 -19 7 -38 7 -61c0 -103 -78 -188 -217 -188c-90 0 -137 25 -172 41l-37 -37h-30zM187 360c0 -110 142 -157 198 -280c32 15 46 46 46 81c0 93 -144 157 -202 271c-28 -15 -42 -39 -42 -72z" />
    <glyph glyph-name="dieresis" unicode="&#xa8;" horiz-adv-x="220" 
d="M-62 642c0 39 29 68 68 68s68 -29 68 -68s-29 -68 -68 -68s-68 29 -68 68zM145 642c0 39 29 68 68 68s68 -29 68 -68s-29 -68 -68 -68s-68 29 -68 68z" />
    <glyph glyph-name="copyright" unicode="&#xa9;" horiz-adv-x="838" 
d="M63 355c0 203 165 368 368 368s368 -165 368 -368s-165 -368 -368 -368s-368 165 -368 368zM105 355c0 -181 146 -330 326 -330s326 149 326 330c0 179 -146 330 -326 330s-326 -151 -326 -330zM230 351c0 127 83 216 216 216c51 0 61 -6 114 -6h21v-134h-40l-11 25
c-24 55 -47 72 -83 72c-57 0 -104 -41 -104 -132s62 -138 126 -138c67 0 95 36 117 66l28 -17c-26 -68 -75 -159 -182 -159c-104 0 -202 79 -202 207z" />
    <glyph glyph-name="ordfeminine" unicode="&#xaa;" horiz-adv-x="467" 
d="M92 363c0 191 245 360 314 360c23 0 32 -9 45 -22l28 19h30l-75 -241c-17 -49 -21 -73 -24 -92c19 14 35 22 67 64l21 -22c-53 -66 -134 -128 -185 -128c-14 0 -21 8 -21 25c0 21 8 37 29 82l30 70h-2c-69 -117 -133 -177 -205 -177c-31 0 -52 25 -52 62zM203 429
c0 -28 9 -34 24 -34c36 0 128 142 155 226c-2 5 -4 10 -7 15c-5 7 -14 15 -29 15c-70 0 -143 -136 -143 -222z" />
    <glyph glyph-name="guillemotleft" unicode="&#xab;" horiz-adv-x="514" 
d="M50 230l6 28l222 192h25l-129 -207l48 -208h-25zM250 230l6 28l222 192h25l-129 -207l48 -208h-25z" />
    <glyph glyph-name="logicalnot" unicode="&#xac;" horiz-adv-x="405" 
d="M62 266l10 50h270l-25 -130h-50l15 80h-220z" />
    <glyph glyph-name="uni00AD" unicode="&#xad;" horiz-adv-x="350" 
d="M78 266l12 50h220l-12 -50h-220z" />
    <glyph glyph-name="registered" unicode="&#xae;" horiz-adv-x="838" 
d="M63 355c0 203 165 368 368 368s368 -165 368 -368s-165 -368 -368 -368s-368 165 -368 368zM105 355c0 -181 146 -330 326 -330s326 149 326 330c0 179 -146 330 -326 330s-326 -151 -326 -330zM219 154v38h27l28 32v263l-28 32h-27v38h229c124 0 173 -29 173 -101
c0 -70 -73 -98 -140 -106v-2l84 -20l78 -152v-22h-142l-61 147c-9 24 -28 28 -39 28h-2v-105l18 -32h30v-38h-228zM399 373h14c44 0 76 27 76 75s-34 65 -77 65h-13v-140z" />
    <glyph glyph-name="overscore" unicode="&#xaf;" horiz-adv-x="220" 
d="M-10 660l15 50h220l-15 -50h-220z" />
    <glyph glyph-name="degree" unicode="&#xb0;" horiz-adv-x="339" 
d="M141 586c0 68 56 124 124 124s124 -56 124 -124s-56 -124 -124 -124s-124 56 -124 124zM202 586c0 -36 27 -65 63 -65s63 29 63 65s-27 65 -63 65s-63 -29 -63 -65z" />
    <glyph glyph-name="plusminus" unicode="&#xb1;" horiz-adv-x="543" 
d="M7 0l10 56h420l-10 -56h-420zM69 322l11 56h181l36 183h58l-36 -183h181l-11 -56h-181l-37 -191h-58l37 191h-181z" />
    <glyph glyph-name="uni00B2" unicode="&#xb2;" horiz-adv-x="436" 
d="M97 320l9 50c122 87 256 184 256 275c0 27 -14 38 -37 38c-28 0 -59 -34 -59 -89v-22h-94c-7 5 -10 12 -10 31c0 76 84 120 176 120c75 0 124 -24 124 -81c0 -92 -122 -179 -245 -235l-1 -2h145l76 77h22l-61 -162h-301z" />
    <glyph glyph-name="uni00B3" unicode="&#xb3;" horiz-adv-x="409" 
d="M98 426l27 9c20 -32 57 -61 108 -61c49 0 88 34 88 91c0 35 -21 47 -53 47h-61l4 20l133 89v2h-185l42 100h10l33 -13h230l-10 -51l-172 -117h42c41 0 86 -18 86 -74c0 -112 -94 -168 -190 -168c-72 0 -111 38 -132 126z" />
    <glyph glyph-name="acute" unicode="&#xb4;" horiz-adv-x="220" 
d="M-27 578c85 35 157 76 224 132l41 -80l-254 -67z" />
    <glyph glyph-name="uni00B5" unicode="&#xb5;" horiz-adv-x="626" 
d="M-52 -194l243 615l-26 31h-57l12 38l209 10l-124 -300c-24 -60 -34 -85 -34 -100c0 -11 6 -20 19 -20c44 0 103 62 171 157c41 57 79 149 106 253l115 10l-107 -300c-21 -59 -32 -100 -34 -121c39 23 65 42 102 79l21 -20c-69 -80 -166 -151 -217 -151
c-27 0 -31 15 -31 34c0 32 35 111 62 173h-2c-69 -98 -150 -204 -248 -207l-71 -181h-109z" />
    <glyph glyph-name="paragraph" unicode="&#xb6;" horiz-adv-x="599" 
d="M-7 46c0 23 9 38 18 45h102v-14c0 -33 10 -54 31 -54c31 0 65 51 93 159l36 135h-10c-108 0 -171 88 -142 196c30 108 129 197 248 197h268l-10 -38h-52l-175 -672h-67l171 672h-62l-105 -403c-43 -160 -125 -282 -234 -282c-64 0 -110 26 -110 59z" />
    <glyph glyph-name="middot" unicode="&#xb7;" horiz-adv-x="272" 
d="M89 350c0 44 36 80 80 80s80 -36 80 -80s-36 -80 -80 -80s-80 36 -80 80z" />
    <glyph glyph-name="cedilla" unicode="&#xb8;" horiz-adv-x="220" 
d="M15 -191l34 51c17 -11 36 -16 55 -16s37 6 37 29s-17 32 -44 32h-31l-7 6l52 101h51l-32 -67h14c56 0 98 -20 98 -69c0 -59 -57 -84 -133 -84c-35 0 -66 8 -94 17z" />
    <glyph glyph-name="uni00B9" unicode="&#xb9;" horiz-adv-x="412" 
d="M97 320l7 38h64l48 42l40 212l-109 -52l9 45l217 115h12l-62 -320l32 -42h63l-7 -38h-314z" />
    <glyph glyph-name="ordmasculine" unicode="&#xba;" horiz-adv-x="480" 
d="M114 464c0 127 101 259 244 259c101 0 165 -62 165 -159c0 -126 -101 -264 -244 -264c-105 0 -165 67 -165 164zM231 470c0 -84 19 -125 64 -125c74 0 111 120 111 209c0 84 -19 125 -64 125c-74 0 -111 -120 -111 -209z" />
    <glyph glyph-name="guillemotright" unicode="&#xbb;" horiz-adv-x="513" 
d="M25 35l130 207l-49 208h25l147 -195l-5 -28l-223 -192h-25zM225 35l130 207l-49 208h25l147 -195l-5 -28l-223 -192h-25z" />
    <glyph glyph-name="onequarter" unicode="&#xbc;" horiz-adv-x="892" 
d="M50 320l7 38h64l48 42l40 212l-109 -52l9 45l217 115h12l-62 -320l32 -42h63l-7 -38h-314zM121 0l685 710h73l-681 -710h-77zM492 76l6 29c85 98 139 165 198 285h147l-283 -270l-1 -2h77l112 116h18l-23 -116h80l-8 -42h-80l-14 -76h-107l14 76h-136z" />
    <glyph glyph-name="onehalf" unicode="&#xbd;" horiz-adv-x="970" 
d="M51 320l7 38h64l48 42l40 212l-109 -52l9 45l217 115h12l-62 -320l32 -42h63l-7 -38h-314zM122 0l685 710h73l-681 -710h-77zM550 0l9 50c122 87 256 184 256 275c0 27 -14 38 -37 38c-28 0 -59 -34 -59 -89v-22h-94c-7 5 -10 12 -10 31c0 76 84 120 176 120
c75 0 124 -24 124 -81c0 -92 -122 -179 -245 -235l-1 -2h145l76 77h22l-61 -162h-301z" />
    <glyph glyph-name="threequarters" unicode="&#xbe;" horiz-adv-x="886" 
d="M61 426l27 9c20 -32 57 -61 108 -61c49 0 88 34 88 91c0 35 -21 47 -53 47h-61l4 20l133 89v2h-185l42 100h10l33 -13h230l-10 -51l-172 -117h42c41 0 86 -18 86 -74c0 -112 -94 -168 -190 -168c-72 0 -111 38 -132 126zM112 0l685 710h73l-681 -710h-77zM483 76l6 29
c85 98 139 165 198 285h147l-283 -270l-1 -2h77l112 116h18l-23 -116h80l-8 -42h-80l-14 -76h-107l14 76h-136z" />
    <glyph glyph-name="questiondown" unicode="&#xbf;" horiz-adv-x="486" 
d="M-8 77c0 112 172 251 299 383l56 58l29 -24c-160 -190 -251 -291 -251 -412c0 -37 11 -49 36 -49c44 0 101 69 101 150v23h125c7 -11 12 -28 12 -47c0 -99 -152 -172 -269 -172c-79 0 -138 22 -138 90zM360 655c0 39 29 68 68 68s68 -29 68 -68s-29 -68 -68 -68
s-68 29 -68 68z" />
    <glyph glyph-name="Agrave" unicode="&#xc0;" 
d="M-32 0l4 18l455 650v82h126v-671l32 -51l-6 -28h-249l9 38h49l39 41v192h-207l-118 -171l33 -62h62l-9 -38h-220zM254 321h173v250zM419 840l51 70c49 -54 100 -98 154 -132l-11 -15z" />
    <glyph glyph-name="Aacute" unicode="&#xc1;" 
d="M-32 0l4 18l455 650v82h126v-671l32 -51l-6 -28h-249l9 38h49l39 41v192h-207l-118 -171l33 -62h62l-9 -38h-220zM254 321h173v250zM354 778c85 35 157 76 224 132l41 -80l-254 -67z" />
    <glyph glyph-name="Acircumflex" unicode="&#xc2;" 
d="M-32 0l4 18l455 650v82h126v-671l32 -51l-6 -28h-249l9 38h49l39 41v192h-207l-118 -171l33 -62h62l-9 -38h-220zM254 321h173v250zM337 778c80 37 149 77 204 132v-1l1 1c20 -44 49 -97 84 -132l-11 -15l-100 46l-167 -46z" />
    <glyph glyph-name="Atilde" unicode="&#xc3;" 
d="M-32 0l4 18l455 650v82h126v-671l32 -51l-6 -28h-249l9 38h49l39 41v192h-207l-118 -171l33 -62h62l-9 -38h-220zM254 321h173v250zM358 844c37 43 85 79 130 79c50 0 72 -39 107 -39c29 0 65 21 84 36l24 -28c-36 -43 -85 -77 -130 -77c-48 0 -62 39 -107 39
c-29 0 -66 -21 -84 -36z" />
    <glyph glyph-name="Adieresis" unicode="&#xc4;" 
d="M-32 0l4 18l455 650v82h126v-671l32 -51l-6 -28h-249l9 38h49l39 41v192h-207l-118 -171l33 -62h62l-9 -38h-220zM254 321h173v250zM335 842c0 39 29 68 68 68s68 -29 68 -68s-29 -68 -68 -68s-68 29 -68 68zM542 842c0 39 29 68 68 68s68 -29 68 -68s-29 -68 -68 -68
s-68 29 -68 68z" />
    <glyph glyph-name="Aring" unicode="&#xc5;" 
d="M-32 0l4 18l455 650v82h126v-671l32 -51l-6 -28h-249l9 38h49l39 41v192h-207l-118 -171l33 -62h62l-9 -38h-220zM254 321h173v250zM456 881c0 47 36 82 81 82c47 0 82 -35 82 -82c0 -45 -35 -81 -82 -81c-45 0 -81 36 -81 81zM497 881c0 -23 17 -40 40 -40
c24 0 42 17 42 40c0 24 -18 42 -42 42c-23 0 -40 -18 -40 -42z" />
    <glyph glyph-name="AE" unicode="&#xc6;" horiz-adv-x="971" 
d="M-35 0l4 18l453 615l-28 39h-51l8 38h654l-42 -210h-18l-79 160h-316v-263h144l129 150h18l-71 -350h-18l-66 150h-136v-268l18 -29h175l191 170h18l-87 -220h-538l9 38h49l39 41v142h-236l-89 -121l33 -62h62l-9 -38h-220zM225 271h199v270z" />
    <glyph glyph-name="Ccedilla" unicode="&#xc7;" horiz-adv-x="676" 
d="M70 256c0 271 230 467 430 467c83 0 128 -21 157 -41l32 37h30l-50 -256h-40l-8 34c-27 117 -69 173 -153 173c-118 0 -267 -160 -267 -371c0 -124 44 -208 160 -208c88 0 183 47 270 127l26 -20c-50 -79 -187 -211 -337 -211c-7 0 -13 0 -20 1l-20 -43h14
c56 0 98 -20 98 -69c0 -59 -57 -84 -133 -84c-35 0 -66 8 -94 17l34 51c17 -11 36 -16 55 -16s37 6 37 29s-17 32 -44 32h-31l-7 6l42 83c-140 29 -181 153 -181 262z" />
    <glyph glyph-name="Egrave" unicode="&#xc8;" horiz-adv-x="659" 
d="M5 0l8 38h40l57 42l109 550l-31 42h-51l8 38h548l-42 -210h-18l-79 160h-201l-52 -263h81l129 150h18l-71 -350h-18l-66 150h-81l-61 -297h199l191 170h18l-87 -220h-548zM362 860l51 70c49 -54 100 -98 154 -132l-11 -15z" />
    <glyph glyph-name="Eacute" unicode="&#xc9;" horiz-adv-x="659" 
d="M5 0l8 38h40l57 42l109 550l-31 42h-51l8 38h548l-42 -210h-18l-79 160h-201l-52 -263h81l129 150h18l-71 -350h-18l-66 150h-81l-61 -297h199l191 170h18l-87 -220h-548zM342 798c85 35 157 76 224 132l41 -80l-254 -67z" />
    <glyph glyph-name="Ecircumflex" unicode="&#xca;" horiz-adv-x="659" 
d="M5 0l8 38h40l57 42l109 550l-31 42h-51l8 38h548l-42 -210h-18l-79 160h-201l-52 -263h81l129 150h18l-71 -350h-18l-66 150h-81l-61 -297h199l191 170h18l-87 -220h-548zM320 798c80 37 149 77 204 132v-1l1 1c20 -44 49 -97 84 -132l-11 -15l-100 46l-167 -46z" />
    <glyph glyph-name="Edieresis" unicode="&#xcb;" horiz-adv-x="659" 
d="M5 0l8 38h40l57 42l109 550l-31 42h-51l8 38h548l-42 -210h-18l-79 160h-201l-52 -263h81l129 150h18l-71 -350h-18l-66 150h-81l-61 -297h199l191 170h18l-87 -220h-548zM293 862c0 39 29 68 68 68s68 -29 68 -68s-29 -68 -68 -68s-68 29 -68 68zM500 862
c0 39 29 68 68 68s68 -29 68 -68s-29 -68 -68 -68s-68 29 -68 68z" />
    <glyph glyph-name="Igrave" unicode="&#xcc;" horiz-adv-x="378" 
d="M9 0l8 38h45l47 42l109 550l-31 42h-46l8 38h298l-8 -38h-47l-46 -42l-109 -550l30 -42h47l-7 -38h-298zM225 860l51 70c49 -54 100 -98 154 -132l-11 -15z" />
    <glyph glyph-name="Iacute" unicode="&#xcd;" horiz-adv-x="378" 
d="M9 0l8 38h45l47 42l109 550l-31 42h-46l8 38h298l-8 -38h-47l-46 -42l-109 -550l30 -42h47l-7 -38h-298zM195 798c85 35 157 76 224 132l41 -80l-254 -67z" />
    <glyph glyph-name="Icircumflex" unicode="&#xce;" horiz-adv-x="378" 
d="M9 0l8 38h45l47 42l109 550l-31 42h-46l8 38h298l-8 -38h-47l-46 -42l-109 -550l30 -42h47l-7 -38h-298zM153 798c80 37 149 77 204 132v-1l1 1c20 -44 49 -97 84 -132l-11 -15l-100 46l-167 -46z" />
    <glyph glyph-name="Idieresis" unicode="&#xcf;" horiz-adv-x="378" 
d="M9 0l8 38h45l47 42l109 550l-31 42h-46l8 38h298l-8 -38h-47l-46 -42l-109 -550l30 -42h47l-7 -38h-298zM156 862c0 39 29 68 68 68s68 -29 68 -68s-29 -68 -68 -68s-68 29 -68 68zM363 862c0 39 29 68 68 68s68 -29 68 -68s-29 -68 -68 -68s-68 29 -68 68z" />
    <glyph glyph-name="Eth" unicode="&#xd0;" horiz-adv-x="748" 
d="M4 0l8 38h50l48 42l55 283h-83l12 50h81l43 217l-31 42h-51l8 38h283c243 0 328 -125 328 -248c0 -249 -197 -462 -460 -462h-291zM237 83c9 -5 19 -8 30 -11c19 -7 43 -11 70 -11c235 0 279 302 279 394c0 96 -45 205 -178 205c-23 0 -46 -4 -62 -8
c-10 -3 -19 -5 -27 -8l-46 -231h-28l-12 -50h30zM293 363l10 50h191l-12 -50h-189z" />
    <glyph glyph-name="Ntilde" unicode="&#xd1;" horiz-adv-x="745" 
d="M7 0l8 38h48l53 63l95 481l-60 109l3 19h140l277 -504h2l83 404l-35 62h-58l8 38h254l-8 -38h-47l-55 -62l-123 -620h-49l-287 519h-2l-79 -408l35 -63h58l-7 -38h-254zM333 844c37 43 85 79 130 79c50 0 72 -39 107 -39c29 0 65 21 84 36l24 -28
c-36 -43 -85 -77 -130 -77c-48 0 -62 39 -107 39c-29 0 -66 -21 -84 -36z" />
    <glyph glyph-name="Ograve" unicode="&#xd2;" horiz-adv-x="747" 
d="M65 232c0 247 214 491 452 491c190 0 242 -147 242 -239c0 -267 -230 -497 -459 -497c-190 0 -235 141 -235 245zM200 289c0 -153 69 -230 164 -230c143 0 256 176 256 374c0 139 -64 220 -165 220c-145 0 -255 -183 -255 -364zM469 840l51 70c49 -54 100 -98 154 -132
l-11 -15z" />
    <glyph glyph-name="Oacute" unicode="&#xd3;" horiz-adv-x="747" 
d="M65 232c0 247 214 491 452 491c190 0 242 -147 242 -239c0 -267 -230 -497 -459 -497c-190 0 -235 141 -235 245zM200 289c0 -153 69 -230 164 -230c143 0 256 176 256 374c0 139 -64 220 -165 220c-145 0 -255 -183 -255 -364zM394 778c85 35 157 76 224 132l41 -80
l-254 -67z" />
    <glyph glyph-name="Ocircumflex" unicode="&#xd4;" horiz-adv-x="747" 
d="M65 232c0 247 214 491 452 491c190 0 242 -147 242 -239c0 -267 -230 -497 -459 -497c-190 0 -235 141 -235 245zM200 289c0 -153 69 -230 164 -230c143 0 256 176 256 374c0 139 -64 220 -165 220c-145 0 -255 -183 -255 -364zM392 778c80 37 149 77 204 132v-1l1 1
c20 -44 49 -97 84 -132l-11 -15l-100 46l-167 -46z" />
    <glyph glyph-name="Otilde" unicode="&#xd5;" horiz-adv-x="747" 
d="M65 232c0 247 214 491 452 491c190 0 242 -147 242 -239c0 -267 -230 -497 -459 -497c-190 0 -235 141 -235 245zM200 289c0 -153 69 -230 164 -230c143 0 256 176 256 374c0 139 -64 220 -165 220c-145 0 -255 -183 -255 -364zM389 844c37 43 85 79 130 79
c50 0 72 -39 107 -39c29 0 65 21 84 36l24 -28c-36 -43 -85 -77 -130 -77c-48 0 -62 39 -107 39c-29 0 -66 -21 -84 -36z" />
    <glyph glyph-name="Odieresis" unicode="&#xd6;" horiz-adv-x="747" 
d="M65 232c0 247 214 491 452 491c190 0 242 -147 242 -239c0 -267 -230 -497 -459 -497c-190 0 -235 141 -235 245zM200 289c0 -153 69 -230 164 -230c143 0 256 176 256 374c0 139 -64 220 -165 220c-145 0 -255 -183 -255 -364zM367 842c0 39 29 68 68 68s68 -29 68 -68
s-29 -68 -68 -68s-68 29 -68 68zM574 842c0 39 29 68 68 68s68 -29 68 -68s-29 -68 -68 -68s-68 29 -68 68z" />
    <glyph glyph-name="multiply" unicode="&#xd7;" horiz-adv-x="518" 
d="M9 99l203 180l-132 175l53 44l130 -176l199 174l37 -44l-199 -174l132 -177l-51 -41l-133 175l-202 -178z" />
    <glyph glyph-name="Oslash" unicode="&#xd8;" horiz-adv-x="746" 
d="M47 0l64 69c-36 49 -47 110 -47 163c0 247 214 491 452 491c69 0 119 -20 156 -49l33 36h70l-67 -72c37 -49 50 -107 50 -154c0 -267 -230 -497 -459 -497c-68 0 -117 18 -152 45l-30 -32h-70zM199 289c0 -43 5 -79 15 -109l370 400c-28 47 -74 73 -130 73
c-145 0 -255 -183 -255 -364zM236 129c30 -47 72 -70 127 -70c143 0 256 176 256 374c0 36 -5 67 -13 95z" />
    <glyph glyph-name="Ugrave" unicode="&#xd9;" horiz-adv-x="737" 
d="M128 258l74 372l-33 42h-40l8 38h313l-8 -38h-59l-48 -42l-71 -359c-32 -158 -4 -217 110 -217c113 0 187 79 214 218l68 338l-35 62h-60l8 38h267l-8 -38h-59l-53 -62l-65 -327c-32 -164 -116 -296 -297 -296c-191 0 -261 96 -226 271zM417 840l51 70
c49 -54 100 -98 154 -132l-11 -15z" />
    <glyph glyph-name="Uacute" unicode="&#xda;" horiz-adv-x="737" 
d="M128 258l74 372l-33 42h-40l8 38h313l-8 -38h-59l-48 -42l-71 -359c-32 -158 -4 -217 110 -217c113 0 187 79 214 218l68 338l-35 62h-60l8 38h267l-8 -38h-59l-53 -62l-65 -327c-32 -164 -116 -296 -297 -296c-191 0 -261 96 -226 271zM402 778c85 35 157 76 224 132
l41 -80l-254 -67z" />
    <glyph glyph-name="Ucircumflex" unicode="&#xdb;" horiz-adv-x="737" 
d="M128 258l74 372l-33 42h-40l8 38h313l-8 -38h-59l-48 -42l-71 -359c-32 -158 -4 -217 110 -217c113 0 187 79 214 218l68 338l-35 62h-60l8 38h267l-8 -38h-59l-53 -62l-65 -327c-32 -164 -116 -296 -297 -296c-191 0 -261 96 -226 271zM375 778c80 37 149 77 204 132v-1
l1 1c20 -44 49 -97 84 -132l-11 -15l-100 46l-167 -46z" />
    <glyph glyph-name="Udieresis" unicode="&#xdc;" horiz-adv-x="737" 
d="M128 258l74 372l-33 42h-40l8 38h313l-8 -38h-59l-48 -42l-71 -359c-32 -158 -4 -217 110 -217c113 0 187 79 214 218l68 338l-35 62h-60l8 38h267l-8 -38h-59l-53 -62l-65 -327c-32 -164 -116 -296 -297 -296c-191 0 -261 96 -226 271zM357 842c0 39 29 68 68 68
s68 -29 68 -68s-29 -68 -68 -68s-68 29 -68 68zM564 842c0 39 29 68 68 68s68 -29 68 -68s-29 -68 -68 -68s-68 29 -68 68z" />
    <glyph glyph-name="Yacute" unicode="&#xdd;" horiz-adv-x="593" 
d="M100 692l4 18h293l-8 -38h-63l-34 -42l102 -230h2l178 230l-25 42h-64l8 38h205l-4 -18l-282 -353l-51 -259l39 -42h54l-7 -38h-336l7 38h53l57 42l52 256l-136 294zM325 778c85 35 157 76 224 132l41 -80l-254 -67z" />
    <glyph glyph-name="Thorn" unicode="&#xde;" horiz-adv-x="621" 
d="M4 0l8 38h48l49 42l109 550l-31 42h-46l8 38h298l-8 -38h-47l-46 -42l-11 -55h101c139 0 211 -37 211 -133c0 -167 -167 -268 -319 -268h-26l9 45h18c101 0 174 85 174 200c0 75 -47 106 -103 106c-35 0 -57 -8 -78 -17l-85 -428l31 -42h90l-7 -38h-347z" />
    <glyph glyph-name="germandbls" unicode="&#xdf;" horiz-adv-x="566" 
d="M-189 -149c0 23 13 48 28 55h72v-24c0 -23 11 -34 33 -34c30 0 51 31 81 139l123 454l-64 16l9 33h68c43 136 137 233 269 233c69 0 162 -29 162 -113c0 -66 -74 -122 -101 -149c-59 0 -80 -28 -80 -61c0 -74 100 -141 100 -256c0 -75 -55 -157 -171 -157
c-59 0 -101 18 -138 53l49 108h34l1 -7c11 -79 38 -105 77 -105c31 0 48 24 48 56c0 88 -100 141 -100 250c0 80 69 152 145 152c5 6 10 14 14 24c7 17 14 42 14 78c0 43 -32 71 -75 71s-90 -25 -119 -132l-132 -467c-45 -157 -138 -276 -247 -276c-64 0 -100 26 -100 59z
" />
    <glyph glyph-name="agrave" unicode="&#xe0;" horiz-adv-x="483" 
d="M1 68c0 172 216 435 343 435c31 0 49 -16 62 -29l38 26h30l-103 -325c-16 -49 -19 -71 -20 -88c27 19 51 40 82 72l23 -21c-66 -87 -160 -151 -199 -151c-13 0 -25 9 -25 25c0 24 15 72 36 119l56 127h-4c-69 -133 -167 -271 -257 -271c-40 0 -62 25 -62 81zM124 122
c0 -17 5 -32 20 -32c33 0 131 143 187 303c-7 11 -26 21 -46 21c-96 0 -161 -192 -161 -292zM293 640l51 70c49 -54 100 -98 154 -132l-11 -15z" />
    <glyph glyph-name="aacute" unicode="&#xe1;" horiz-adv-x="483" 
d="M1 68c0 172 216 435 343 435c31 0 49 -16 62 -29l38 26h30l-103 -325c-16 -49 -19 -71 -20 -88c27 19 51 40 82 72l23 -21c-66 -87 -160 -151 -199 -151c-13 0 -25 9 -25 25c0 24 15 72 36 119l56 127h-4c-69 -133 -167 -271 -257 -271c-40 0 -62 25 -62 81zM124 122
c0 -17 5 -32 20 -32c33 0 131 143 187 303c-7 11 -26 21 -46 21c-96 0 -161 -192 -161 -292zM253 578c85 35 157 76 224 132l41 -80l-254 -67z" />
    <glyph glyph-name="acircumflex" unicode="&#xe2;" horiz-adv-x="483" 
d="M1 68c0 172 216 435 343 435c31 0 49 -16 62 -29l38 26h30l-103 -325c-16 -49 -19 -71 -20 -88c27 19 51 40 82 72l23 -21c-66 -87 -160 -151 -199 -151c-13 0 -25 9 -25 25c0 24 15 72 36 119l56 127h-4c-69 -133 -167 -271 -257 -271c-40 0 -62 25 -62 81zM124 122
c0 -17 5 -32 20 -32c33 0 131 143 187 303c-7 11 -26 21 -46 21c-96 0 -161 -192 -161 -292zM251 578c80 37 149 77 204 132v-1l1 1c20 -44 49 -97 84 -132l-11 -15l-100 46l-167 -46z" />
    <glyph glyph-name="atilde" unicode="&#xe3;" horiz-adv-x="483" 
d="M1 68c0 172 216 435 343 435c31 0 49 -16 62 -29l38 26h30l-103 -325c-16 -49 -19 -71 -20 -88c27 19 51 40 82 72l23 -21c-66 -87 -160 -151 -199 -151c-13 0 -25 9 -25 25c0 24 15 72 36 119l56 127h-4c-69 -133 -167 -271 -257 -271c-40 0 -62 25 -62 81zM124 122
c0 -17 5 -32 20 -32c33 0 131 143 187 303c-7 11 -26 21 -46 21c-96 0 -161 -192 -161 -292zM233 644c37 43 85 79 130 79c50 0 72 -39 107 -39c29 0 65 21 84 36l24 -28c-36 -43 -85 -77 -130 -77c-48 0 -62 39 -107 39c-29 0 -66 -21 -84 -36z" />
    <glyph glyph-name="adieresis" unicode="&#xe4;" horiz-adv-x="483" 
d="M1 68c0 172 216 435 343 435c31 0 49 -16 62 -29l38 26h30l-103 -325c-16 -49 -19 -71 -20 -88c27 19 51 40 82 72l23 -21c-66 -87 -160 -151 -199 -151c-13 0 -25 9 -25 25c0 24 15 72 36 119l56 127h-4c-69 -133 -167 -271 -257 -271c-40 0 -62 25 -62 81zM124 122
c0 -17 5 -32 20 -32c33 0 131 143 187 303c-7 11 -26 21 -46 21c-96 0 -161 -192 -161 -292zM234 642c0 39 29 68 68 68s68 -29 68 -68s-29 -68 -68 -68s-68 29 -68 68zM441 642c0 39 29 68 68 68s68 -29 68 -68s-29 -68 -68 -68s-68 29 -68 68z" />
    <glyph glyph-name="aring" unicode="&#xe5;" horiz-adv-x="483" 
d="M1 68c0 172 216 435 343 435c31 0 49 -16 62 -29l38 26h30l-103 -325c-16 -49 -19 -71 -20 -88c27 19 51 40 82 72l23 -21c-66 -87 -160 -151 -199 -151c-13 0 -25 9 -25 25c0 24 15 72 36 119l56 127h-4c-69 -133 -167 -271 -257 -271c-40 0 -62 25 -62 81zM124 122
c0 -17 5 -32 20 -32c33 0 131 143 187 303c-7 11 -26 21 -46 21c-96 0 -161 -192 -161 -292zM334 641c0 47 36 82 81 82c47 0 82 -35 82 -82c0 -45 -35 -81 -82 -81c-45 0 -81 36 -81 81zM375 641c0 -23 17 -40 40 -40c24 0 42 17 42 40c0 24 -18 42 -42 42
c-23 0 -40 -18 -40 -42z" />
    <glyph glyph-name="ae" unicode="&#xe6;" horiz-adv-x="654" 
d="M1 68c0 172 216 435 343 435c29 0 73 -22 92 -78c51 47 109 78 169 78c59 0 76 -28 76 -57c0 -101 -159 -211 -282 -219c-7 -33 -11 -63 -11 -89c0 -44 8 -56 35 -56c40 0 100 41 155 113l33 -23c-67 -105 -175 -185 -278 -185c-49 0 -76 32 -76 83v2c0 24 7 45 27 92
l40 94h-4c-69 -133 -167 -271 -257 -271c-40 0 -62 25 -62 81zM124 122c0 -17 5 -32 20 -32c33 0 131 143 187 303c-7 11 -26 21 -46 21c-96 0 -161 -192 -161 -292zM408 261c47 0 155 63 155 132c0 23 -9 38 -32 38c-54 0 -99 -85 -123 -170z" />
    <glyph glyph-name="ccedilla" unicode="&#xe7;" horiz-adv-x="404" 
d="M-26 -191l34 51c17 -11 36 -16 55 -16s37 6 37 29s-17 32 -44 32h-31l-7 6l40 78c-37 9 -55 36 -55 81c0 151 169 433 348 433c59 0 76 -33 76 -69c0 -35 -17 -69 -40 -93h-83v34c0 33 -9 53 -32 53c-76 0 -138 -201 -138 -291c0 -39 7 -56 30 -56c45 0 104 42 160 114
l33 -23c-59 -93 -155 -168 -247 -182l-21 -45h14c56 0 98 -20 98 -69c0 -59 -57 -84 -133 -84c-35 0 -66 8 -94 17z" />
    <glyph glyph-name="egrave" unicode="&#xe8;" horiz-adv-x="400" 
d="M3 70c0 151 169 433 348 433c59 0 76 -28 76 -57c0 -101 -159 -211 -282 -219c-7 -33 -11 -63 -11 -89c0 -44 8 -56 35 -56c40 0 100 41 155 113l33 -23c-67 -105 -175 -185 -278 -185c-49 0 -76 32 -76 83zM154 261c47 0 155 63 155 132c0 23 -9 38 -32 38
c-54 0 -99 -85 -123 -170zM267 640l51 70c49 -54 100 -98 154 -132l-11 -15z" />
    <glyph glyph-name="eacute" unicode="&#xe9;" horiz-adv-x="400" 
d="M3 70c0 151 169 433 348 433c59 0 76 -28 76 -57c0 -101 -159 -211 -282 -219c-7 -33 -11 -63 -11 -89c0 -44 8 -56 35 -56c40 0 100 41 155 113l33 -23c-67 -105 -175 -185 -278 -185c-49 0 -76 32 -76 83zM154 261c47 0 155 63 155 132c0 23 -9 38 -32 38
c-54 0 -99 -85 -123 -170zM232 578c85 35 157 76 224 132l41 -80l-254 -67z" />
    <glyph glyph-name="ecircumflex" unicode="&#xea;" horiz-adv-x="400" 
d="M3 70c0 151 169 433 348 433c59 0 76 -28 76 -57c0 -101 -159 -211 -282 -219c-7 -33 -11 -63 -11 -89c0 -44 8 -56 35 -56c40 0 100 41 155 113l33 -23c-67 -105 -175 -185 -278 -185c-49 0 -76 32 -76 83zM154 261c47 0 155 63 155 132c0 23 -9 38 -32 38
c-54 0 -99 -85 -123 -170zM205 578c80 37 149 77 204 132v-1l1 1c20 -44 49 -97 84 -132l-11 -15l-100 46l-167 -46z" />
    <glyph glyph-name="edieresis" unicode="&#xeb;" horiz-adv-x="400" 
d="M3 70c0 151 169 433 348 433c59 0 76 -28 76 -57c0 -101 -159 -211 -282 -219c-7 -33 -11 -63 -11 -89c0 -44 8 -56 35 -56c40 0 100 41 155 113l33 -23c-67 -105 -175 -185 -278 -185c-49 0 -76 32 -76 83zM154 261c47 0 155 63 155 132c0 23 -9 38 -32 38
c-54 0 -99 -85 -123 -170zM208 642c0 39 29 68 68 68s68 -29 68 -68s-29 -68 -68 -68s-68 29 -68 68zM415 642c0 39 29 68 68 68s68 -29 68 -68s-29 -68 -68 -68s-68 29 -68 68z" />
    <glyph glyph-name="igrave" unicode="&#xec;" horiz-adv-x="302" 
d="M32 21c0 19 6 51 21 94l108 305l-27 32h-57l12 38l209 10l-107 -300c-21 -59 -32 -100 -34 -121c39 23 65 42 102 79l21 -20c-69 -80 -166 -151 -217 -151c-27 0 -31 15 -31 34zM138 640l51 70c49 -54 100 -98 154 -132l-11 -15z" />
    <glyph glyph-name="iacute" unicode="&#xed;" horiz-adv-x="302" 
d="M32 21c0 19 6 51 21 94l108 305l-27 32h-57l12 38l209 10l-107 -300c-21 -59 -32 -100 -34 -121c39 23 65 42 102 79l21 -20c-69 -80 -166 -151 -217 -151c-27 0 -31 15 -31 34zM98 578c85 35 157 76 224 132l41 -80l-254 -67z" />
    <glyph glyph-name="icircumflex" unicode="&#xee;" horiz-adv-x="302" 
d="M32 21c0 19 6 51 21 94l108 305l-27 32h-57l12 38l209 10l-107 -300c-21 -59 -32 -100 -34 -121c39 23 65 42 102 79l21 -20c-69 -80 -166 -151 -217 -151c-27 0 -31 15 -31 34zM95 578c80 37 149 77 204 132v-1l1 1c20 -44 49 -97 84 -132l-11 -15l-100 46l-167 -46z
" />
    <glyph glyph-name="idieresis" unicode="&#xef;" horiz-adv-x="302" 
d="M32 21c0 19 6 51 21 94l108 305l-27 32h-57l12 38l209 10l-107 -300c-21 -59 -32 -100 -34 -121c39 23 65 42 102 79l21 -20c-69 -80 -166 -151 -217 -151c-27 0 -31 15 -31 34zM79 642c0 39 29 68 68 68s68 -29 68 -68s-29 -68 -68 -68s-68 29 -68 68zM286 642
c0 39 29 68 68 68s68 -29 68 -68s-29 -68 -68 -68s-68 29 -68 68z" />
    <glyph glyph-name="eth" unicode="&#xf0;" horiz-adv-x="553" 
d="M31 156c0 149 132 287 292 287c52 0 76 -11 91 -20h2c-4 41 -14 79 -31 113l-108 -25l14 51l71 16c-29 44 -66 80 -105 107l10 38c80 -23 140 -68 183 -124l118 27l-14 -51l-76 -18c41 -72 60 -150 60 -214c0 -168 -135 -356 -328 -356c-104 0 -179 68 -179 169zM168 101
c0 -44 18 -61 53 -61c97 0 168 201 168 284c0 44 -18 66 -55 66c-100 0 -166 -204 -166 -289z" />
    <glyph glyph-name="ntilde" unicode="&#xf1;" horiz-adv-x="576" 
d="M12 0l147 420l-27 32h-52l11 38l209 10l-93 -218h2c34 56 162 221 280 221c44 0 81 -21 81 -66c0 -27 -11 -53 -30 -88l-97 -186c-17 -32 -29 -58 -34 -85c39 16 75 50 107 81l23 -23c-73 -86 -178 -149 -221 -149c-31 0 -43 10 -43 29c0 23 22 69 45 116l81 164
c11 22 31 67 31 91c0 19 -9 24 -24 24c-34 0 -124 -77 -185 -172c-34 -53 -57 -107 -100 -239h-111zM275 644c37 43 85 79 130 79c50 0 72 -39 107 -39c29 0 65 21 84 36l24 -28c-36 -43 -85 -77 -130 -77c-48 0 -62 39 -107 39c-29 0 -66 -21 -84 -36z" />
    <glyph glyph-name="ograve" unicode="&#xf2;" horiz-adv-x="413" 
d="M3 70c0 151 169 433 348 433c49 0 76 -32 76 -83c0 -151 -169 -433 -348 -433c-49 0 -76 32 -76 83zM133 130c0 -33 9 -54 32 -54c73 0 139 187 139 298c0 33 -9 54 -32 54c-73 0 -139 -187 -139 -298zM272 640l51 70c49 -54 100 -98 154 -132l-11 -15z" />
    <glyph glyph-name="oacute" unicode="&#xf3;" horiz-adv-x="413" 
d="M3 70c0 151 169 433 348 433c49 0 76 -32 76 -83c0 -151 -169 -433 -348 -433c-49 0 -76 32 -76 83zM133 130c0 -33 9 -54 32 -54c73 0 139 187 139 298c0 33 -9 54 -32 54c-73 0 -139 -187 -139 -298zM227 578c85 35 157 76 224 132l41 -80l-254 -67z" />
    <glyph glyph-name="ocircumflex" unicode="&#xf4;" horiz-adv-x="413" 
d="M3 70c0 151 169 433 348 433c49 0 76 -32 76 -83c0 -151 -169 -433 -348 -433c-49 0 -76 32 -76 83zM133 130c0 -33 9 -54 32 -54c73 0 139 187 139 298c0 33 -9 54 -32 54c-73 0 -139 -187 -139 -298zM211 578c80 37 149 77 204 132v-1l1 1c20 -44 49 -97 84 -132
l-11 -15l-100 46l-167 -46z" />
    <glyph glyph-name="otilde" unicode="&#xf5;" horiz-adv-x="413" 
d="M3 70c0 151 169 433 348 433c49 0 76 -32 76 -83c0 -151 -169 -433 -348 -433c-49 0 -76 32 -76 83zM133 130c0 -33 9 -54 32 -54c73 0 139 187 139 298c0 33 -9 54 -32 54c-73 0 -139 -187 -139 -298zM222 644c37 43 85 79 130 79c50 0 72 -39 107 -39c29 0 65 21 84 36
l24 -28c-36 -43 -85 -77 -130 -77c-48 0 -62 39 -107 39c-29 0 -66 -21 -84 -36z" />
    <glyph glyph-name="odieresis" unicode="&#xf6;" horiz-adv-x="413" 
d="M3 70c0 151 169 433 348 433c49 0 76 -32 76 -83c0 -151 -169 -433 -348 -433c-49 0 -76 32 -76 83zM133 130c0 -33 9 -54 32 -54c73 0 139 187 139 298c0 33 -9 54 -32 54c-73 0 -139 -187 -139 -298zM203 642c0 39 29 68 68 68s68 -29 68 -68s-29 -68 -68 -68
s-68 29 -68 68zM410 642c0 39 29 68 68 68s68 -29 68 -68s-29 -68 -68 -68s-68 29 -68 68z" />
    <glyph glyph-name="divide" unicode="&#xf7;" horiz-adv-x="596" 
d="M44 252l13 56h490l-13 -56h-490zM202 126c0 37 29 68 68 68s68 -31 68 -68c0 -39 -29 -69 -68 -69s-68 30 -68 69zM271 435c0 37 29 68 68 68s68 -31 68 -68c0 -39 -29 -69 -68 -69s-68 30 -68 69z" />
    <glyph glyph-name="oslash" unicode="&#xf8;" horiz-adv-x="421" 
d="M-64 0l72 70c0 151 169 433 348 433c27 0 48 -10 62 -30l17 17h70l-73 -72c-4 -152 -169 -431 -348 -431c-27 0 -48 10 -62 29l-16 -16h-70zM138 129c0 -32 9 -53 32 -53c57 0 108 111 129 211zM146 206l163 160v8c0 33 -9 54 -32 54c-58 0 -112 -118 -131 -222z" />
    <glyph glyph-name="ugrave" unicode="&#xf9;" horiz-adv-x="561" 
d="M29 50c0 35 13 69 33 118l106 252l-27 32h-57l12 38l209 10l-124 -300c-24 -60 -34 -85 -34 -100c0 -11 6 -20 19 -20c44 0 103 62 171 157c41 57 79 149 106 253l115 10l-107 -300c-21 -59 -32 -100 -34 -121c39 23 65 42 102 79l21 -20c-69 -80 -166 -151 -217 -151
c-27 0 -31 15 -31 34c0 32 35 111 62 173h-2c-69 -101 -154 -207 -254 -207c-54 0 -69 30 -69 63zM308 640l51 70c49 -54 100 -98 154 -132l-11 -15z" />
    <glyph glyph-name="uacute" unicode="&#xfa;" horiz-adv-x="561" 
d="M29 50c0 35 13 69 33 118l106 252l-27 32h-57l12 38l209 10l-124 -300c-24 -60 -34 -85 -34 -100c0 -11 6 -20 19 -20c44 0 103 62 171 157c41 57 79 149 106 253l115 10l-107 -300c-21 -59 -32 -100 -34 -121c39 23 65 42 102 79l21 -20c-69 -80 -166 -151 -217 -151
c-27 0 -31 15 -31 34c0 32 35 111 62 173h-2c-69 -101 -154 -207 -254 -207c-54 0 -69 30 -69 63zM278 578c85 35 157 76 224 132l41 -80l-254 -67z" />
    <glyph glyph-name="ucircumflex" unicode="&#xfb;" horiz-adv-x="561" 
d="M29 50c0 35 13 69 33 118l106 252l-27 32h-57l12 38l209 10l-124 -300c-24 -60 -34 -85 -34 -100c0 -11 6 -20 19 -20c44 0 103 62 171 157c41 57 79 149 106 253l115 10l-107 -300c-21 -59 -32 -100 -34 -121c39 23 65 42 102 79l21 -20c-69 -80 -166 -151 -217 -151
c-27 0 -31 15 -31 34c0 32 35 111 62 173h-2c-69 -101 -154 -207 -254 -207c-54 0 -69 30 -69 63zM256 578c80 37 149 77 204 132v-1l1 1c20 -44 49 -97 84 -132l-11 -15l-100 46l-167 -46z" />
    <glyph glyph-name="udieresis" unicode="&#xfc;" horiz-adv-x="561" 
d="M29 50c0 35 13 69 33 118l106 252l-27 32h-57l12 38l209 10l-124 -300c-24 -60 -34 -85 -34 -100c0 -11 6 -20 19 -20c44 0 103 62 171 157c41 57 79 149 106 253l115 10l-107 -300c-21 -59 -32 -100 -34 -121c39 23 65 42 102 79l21 -20c-69 -80 -166 -151 -217 -151
c-27 0 -31 15 -31 34c0 32 35 111 62 173h-2c-69 -101 -154 -207 -254 -207c-54 0 -69 30 -69 63zM239 642c0 39 29 68 68 68s68 -29 68 -68s-29 -68 -68 -68s-68 29 -68 68zM446 642c0 39 29 68 68 68s68 -29 68 -68s-29 -68 -68 -68s-68 29 -68 68z" />
    <glyph glyph-name="yacute" unicode="&#xfd;" horiz-adv-x="449" 
d="M-188 -149c0 27 14 50 33 70h75v-5c0 -27 20 -39 37 -39c36 0 69 8 100 68c41 81 57 243 81 475l-29 32h-36l9 38l183 8c-40 -279 -56 -361 -80 -431h2c171 192 196 259 196 314c0 23 -14 33 -35 33h-16l11 76c15 7 43 13 71 13s62 -19 62 -64c0 -91 -105 -240 -305 -449
c-135 -143 -204 -198 -284 -198c-43 0 -75 30 -75 59zM206 578c85 35 157 76 224 132l41 -80l-254 -67z" />
    <glyph glyph-name="thorn" unicode="&#xfe;" horiz-adv-x="455" 
d="M-120 -195l12 38h52l29 32l220 765l-27 32h-52l11 38l190 10l-142 -453h2c69 109 143 236 234 236c40 0 62 -25 62 -81c0 -172 -206 -435 -333 -435c-8 0 -21 0 -28 3l-29 -115l28 -32h60l-12 -38h-277zM151 97c7 -11 26 -21 46 -21c96 0 151 192 151 292
c0 17 -5 32 -20 32c-33 0 -134 -143 -177 -303z" />
    <glyph glyph-name="ydieresis" unicode="&#xff;" horiz-adv-x="449" 
d="M-188 -149c0 27 14 50 33 70h75v-5c0 -27 20 -39 37 -39c36 0 69 8 100 68c41 81 57 243 81 475l-29 32h-36l9 38l183 8c-40 -279 -56 -361 -80 -431h2c171 192 196 259 196 314c0 23 -14 33 -35 33h-16l11 76c15 7 43 13 71 13s62 -19 62 -64c0 -91 -105 -240 -305 -449
c-135 -143 -204 -198 -284 -198c-43 0 -75 30 -75 59zM167 642c0 39 29 68 68 68s68 -29 68 -68s-29 -68 -68 -68s-68 29 -68 68zM374 642c0 39 29 68 68 68s68 -29 68 -68s-29 -68 -68 -68s-68 29 -68 68z" />
    <glyph glyph-name="OE" unicode="&#x152;" horiz-adv-x="1026" 
d="M69 248c0 242 187 453 443 461v1h548l-42 -210h-18l-79 160h-201l-52 -263h81l129 150h18l-71 -350h-18l-66 150h-81l-61 -297h199l191 170h18l-87 -220h-548c-223 8 -303 129 -303 248zM208 255c0 -96 45 -205 178 -205c23 0 45 4 62 8l27 8l2 14l108 547
c-5 3 -49 22 -98 22c-235 0 -279 -302 -279 -394z" />
    <glyph glyph-name="oe" unicode="&#x153;" horiz-adv-x="637" 
d="M3 70c0 151 169 433 348 433c45 0 71 -28 75 -72c51 44 105 72 162 72c59 0 76 -28 76 -57c0 -101 -159 -211 -282 -219c-7 -33 -11 -63 -11 -89c0 -44 8 -56 35 -56c40 0 100 41 155 113l33 -23c-67 -105 -175 -185 -278 -185c-45 0 -72 28 -76 71
c-49 -43 -105 -71 -161 -71c-49 0 -76 32 -76 83zM133 130c0 -33 9 -54 32 -54c40 0 75 53 102 120c1 3 1 7 4 10c20 56 33 119 33 168c0 33 -9 54 -32 54c-73 0 -139 -187 -139 -298zM391 261c47 0 155 63 155 132c0 23 -9 38 -32 38c-54 0 -99 -85 -123 -170z" />
    <glyph glyph-name="Ydieresis" unicode="&#x178;" horiz-adv-x="593" 
d="M100 692l4 18h293l-8 -38h-63l-34 -42l102 -230h2l178 230l-25 42h-64l8 38h205l-4 -18l-282 -353l-51 -259l39 -42h54l-7 -38h-336l7 38h53l57 42l52 256l-136 294zM290 842c0 39 29 68 68 68s68 -29 68 -68s-29 -68 -68 -68s-68 29 -68 68zM497 842c0 39 29 68 68 68
s68 -29 68 -68s-29 -68 -68 -68s-68 29 -68 68z" />
    <glyph glyph-name="circumflex" unicode="&#x2c6;" horiz-adv-x="220" 
d="M-34 578c80 37 149 77 204 132v-1l1 1c20 -44 49 -97 84 -132l-11 -15l-100 46l-167 -46z" />
    <glyph glyph-name="tilde" unicode="&#x2dc;" horiz-adv-x="220" 
d="M-63 644c37 43 85 79 130 79c50 0 72 -39 107 -39c29 0 65 21 84 36l24 -28c-36 -43 -85 -77 -130 -77c-48 0 -62 39 -107 39c-29 0 -66 -21 -84 -36z" />
    <glyph glyph-name="uni2000" unicode="&#x2000;" horiz-adv-x="481" 
 />
    <glyph glyph-name="uni2001" unicode="&#x2001;" horiz-adv-x="963" 
 />
    <glyph glyph-name="uni2002" unicode="&#x2002;" horiz-adv-x="481" 
 />
    <glyph glyph-name="uni2003" unicode="&#x2003;" horiz-adv-x="963" 
 />
    <glyph glyph-name="uni2004" unicode="&#x2004;" horiz-adv-x="321" 
 />
    <glyph glyph-name="uni2005" unicode="&#x2005;" horiz-adv-x="241" 
 />
    <glyph glyph-name="uni2006" unicode="&#x2006;" horiz-adv-x="160" 
 />
    <glyph glyph-name="uni2007" unicode="&#x2007;" horiz-adv-x="160" 
 />
    <glyph glyph-name="uni2008" unicode="&#x2008;" horiz-adv-x="120" 
 />
    <glyph glyph-name="uni2009" unicode="&#x2009;" horiz-adv-x="192" 
 />
    <glyph glyph-name="uni200A" unicode="&#x200a;" horiz-adv-x="53" 
 />
    <glyph glyph-name="uni2010" unicode="&#x2010;" horiz-adv-x="364" 
d="M92 266v50h220v-50h-220z" />
    <glyph glyph-name="uni2011" unicode="&#x2011;" horiz-adv-x="364" 
d="M92 266v50h220v-50h-220z" />
    <glyph glyph-name="figuredash" unicode="&#x2012;" horiz-adv-x="364" 
d="M92 266v50h220v-50h-220z" />
    <glyph glyph-name="endash" unicode="&#x2013;" horiz-adv-x="544" 
d="M92 266v50h400v-50h-400z" />
    <glyph glyph-name="emdash" unicode="&#x2014;" horiz-adv-x="1044" 
d="M92 266v50h900v-50h-900z" />
    <glyph glyph-name="quoteleft" unicode="&#x2018;" horiz-adv-x="242" 
d="M130 528c0 75 101 165 182 195l8 -21c-39 -16 -106 -57 -124 -107c51 -1 71 -31 71 -68c0 -39 -29 -68 -73 -68c-39 0 -64 24 -64 69z" />
    <glyph glyph-name="quoteright" unicode="&#x2019;" horiz-adv-x="241" 
d="M125 480c41 16 103 57 124 107c-51 1 -71 31 -71 68c0 39 29 68 73 68c39 0 64 -24 64 -69c0 -76 -101 -165 -182 -195z" />
    <glyph glyph-name="quotesinglbase" unicode="&#x201a;" horiz-adv-x="248" 
d="M-36 -120c41 16 103 57 124 107c-51 1 -71 31 -71 68c0 39 29 68 73 68c39 0 64 -24 64 -69c0 -76 -101 -165 -182 -195z" />
    <glyph glyph-name="quotedblleft" unicode="&#x201c;" horiz-adv-x="452" 
d="M130 528c0 75 101 165 182 195l8 -21c-39 -16 -106 -57 -124 -107c51 -1 71 -31 71 -68c0 -39 -29 -68 -73 -68c-39 0 -64 24 -64 69zM340 528c0 75 101 165 182 195l8 -21c-39 -16 -106 -57 -124 -107c51 -1 71 -31 71 -68c0 -39 -29 -68 -73 -68c-39 0 -64 24 -64 69z
" />
    <glyph glyph-name="quotedblright" unicode="&#x201d;" horiz-adv-x="451" 
d="M125 480c41 16 103 57 124 107c-51 1 -71 31 -71 68c0 39 29 68 73 68c39 0 64 -24 64 -69c0 -76 -101 -165 -182 -195zM335 480c41 16 103 57 124 107c-51 1 -71 31 -71 68c0 39 29 68 73 68c39 0 64 -24 64 -69c0 -76 -101 -165 -182 -195z" />
    <glyph glyph-name="quotedblbase" unicode="&#x201e;" horiz-adv-x="458" 
d="M-36 -120c41 16 103 57 124 107c-51 1 -71 31 -71 68c0 39 29 68 73 68c39 0 64 -24 64 -69c0 -76 -101 -165 -182 -195zM174 -120c41 16 103 57 124 107c-51 1 -71 31 -71 68c0 39 29 68 73 68c39 0 64 -24 64 -69c0 -76 -101 -165 -182 -195z" />
    <glyph glyph-name="bullet" unicode="&#x2022;" horiz-adv-x="330" 
d="M81 279c0 43 36 79 80 79s80 -36 80 -79c0 -44 -36 -80 -80 -80s-80 36 -80 80z" />
    <glyph glyph-name="ellipsis" unicode="&#x2026;" horiz-adv-x="726" 
d="M18 55c0 39 29 68 68 68s69 -29 69 -68s-30 -68 -69 -68s-68 29 -68 68zM258 55c0 39 29 68 68 68s68 -29 68 -68s-29 -68 -68 -68s-68 29 -68 68zM498 55c0 39 30 68 69 68s68 -29 68 -68s-29 -68 -68 -68s-69 29 -69 68z" />
    <glyph glyph-name="uni202F" unicode="&#x202f;" horiz-adv-x="192" 
 />
    <glyph glyph-name="guilsinglleft" unicode="&#x2039;" horiz-adv-x="314" 
d="M50 230l6 28l222 192h25l-129 -207l48 -208h-25z" />
    <glyph glyph-name="guilsinglright" unicode="&#x203a;" horiz-adv-x="313" 
d="M26 35l129 207l-48 208h25l147 -195l-6 -28l-222 -192h-25z" />
    <glyph glyph-name="uni205F" unicode="&#x205f;" horiz-adv-x="241" 
 />
    <glyph glyph-name="Euro" unicode="&#x20ac;" horiz-adv-x="736" 
d="M29 256l11 56h55c4 29 10 57 18 84h-54l11 56h65c75 164 239 271 387 271c83 0 128 -21 157 -41l32 37h30l-50 -256h-40l-8 34c-27 117 -69 173 -153 173c-87 0 -192 -88 -240 -218h222l-11 -56h-228c-5 -25 -9 -53 -10 -84h219l-11 -56h-206c9 -100 55 -165 158 -165
c88 0 183 47 270 127l26 -20c-50 -79 -187 -211 -337 -211c-196 0 -250 144 -250 269h-63z" />
    <glyph glyph-name="trademark" unicode="&#x2122;" horiz-adv-x="1166" 
d="M121 516l39 203h39l25 -9h274l28 9h39l-39 -203h-28l-43 150h-41l-56 -289l24 -32h55l-8 -38h-293l8 38h55l34 32l56 289h-39l-101 -150h-28zM545 307l8 38h25l36 32l50 258l-12 37h-36l8 38h192l44 -222h2l131 222h189l-8 -38h-36l-26 -37l-50 -258l24 -32h25l-8 -38
h-238l8 38h30l34 32l43 222h-2l-173 -292h-34l-63 292h-1l-43 -222l22 -32h40l-8 -38h-173z" />
    <glyph glyph-name="uniE000" unicode="&#xe000;" horiz-adv-x="505" 
d="M0 0v505h505v-505h-505z" />
    <glyph glyph-name="glyph1" horiz-adv-x="0" 
 />
  </font>
</defs>
</svg>
